M48
; DRILL file {KiCad 8.0.7} date 2025-03-14T10:19:42+0100
; FORMAT={-:-/ absolute / metric / decimal}
; #@! TF.CreationDate,2025-03-14T10:19:42+01:00
; #@! TF.GenerationSoftware,Kicad,Pcbnew,8.0.7
; #@! TF.FileFunction,Plated,1,4,PTH
FMAT,2
METRIC
; #@! TA.AperFunction,Plated,PTH,ViaDrill
T1C0.250
; #@! TA.AperFunction,Plated,PTH,ViaDrill
T2C0.300
; #@! TA.AperFunction,Plated,PTH,ComponentDrill
T3C0.800
; #@! TA.AperFunction,Plated,PTH,ComponentDrill
T4C1.000
; #@! TA.AperFunction,Plated,PTH,ComponentDrill
T5C1.300
; #@! TA.AperFunction,Plated,PTH,ComponentDrill
T6C1.500
; #@! TA.AperFunction,Plated,PTH,ComponentDrill
T7C1.700
; #@! TA.AperFunction,Plated,PTH,ComponentDrill
T8C3.450
%
G90
G05
T1
X57.049Y-107.836
X57.096Y-117.432
X57.097Y-130.934
X57.103Y-110.638
X57.124Y-115.814
X57.218Y-87.119
X57.316Y-120.174
X57.347Y-74.943
X57.352Y-95.098
X57.379Y-99.712
X57.479Y-103.004
X57.502Y-79.829
X57.524Y-128.283
X57.562Y-89.469
X57.62Y-69.454
X57.631Y-76.934
X57.69Y-84.624
X57.708Y-105.585
X57.73Y-122.719
X57.756Y-125.656
X57.759Y-97.607
X57.76Y-135.215
X57.767Y-67.147
X57.77Y-72.357
X57.892Y-112.857
X57.9Y-92.334
X57.929Y-82.549
X57.956Y-133.446
X57.983Y-138.368
X59.667Y-97.544
X59.68Y-82.747
X59.705Y-80.094
X59.721Y-110.093
X59.731Y-84.808
X59.756Y-113.042
X59.757Y-107.304
X59.795Y-102.509
X59.881Y-120.16
X59.932Y-92.903
X59.942Y-94.801
X59.947Y-104.734
X60.114Y-87.084
X60.143Y-115.493
X60.156Y-125.707
X60.353Y-99.764
X60.459Y-117.508
X60.483Y-90.398
X62.152Y-87.811
X62.376Y-99.637
X62.385Y-102.891
X62.438Y-120.141
X62.495Y-79.628
X62.496Y-94.838
X62.551Y-112.458
X62.581Y-104.892
X62.623Y-92.38
X62.768Y-97.594
X64.679Y-94.777
X64.689Y-105.094
X64.759Y-122.877
X64.841Y-120.315
X64.961Y-102.342
X64.98Y-87.16
X65.017Y-92.701
X65.018Y-130.117
X65.112Y-97.523
X65.238Y-77.192
X65.244Y-79.957
X65.521Y-100.135
X67.258Y-133.323
X67.285Y-117.402
X67.296Y-84.727
X67.301Y-138.035
X67.346Y-82.043
X67.351Y-92.669
X67.457Y-110.05
X67.557Y-120.521
X67.578Y-97.376
X67.633Y-108.032
X67.765Y-89.797
X67.799Y-115.656
X67.846Y-99.686
X67.901Y-79.43
X67.937Y-102.535
X67.95Y-135.213
X67.954Y-64.977
X68.146Y-61.528
X69.738Y-100.018
X69.791Y-127.949
X69.844Y-97.185
X69.93Y-138.289
X69.96Y-87.71
X69.999Y-85.052
X69.999Y-64.923
X70.0Y-92.59
X70.03Y-62.321
X70.044Y-120.182
X70.06Y-108.05
X70.197Y-75.097
X70.224Y-109.992
X70.24Y-114.934
X70.265Y-130.469
X70.31Y-135.947
X70.33Y-102.07
X70.395Y-77.462
X70.397Y-133.02
X70.471Y-80.125
X70.508Y-122.548
X70.56Y-117.67
X70.626Y-82.086
X70.632Y-90.356
X72.288Y-82.022
X72.345Y-115.069
X72.404Y-97.119
X72.56Y-90.5
X72.581Y-74.616
X72.627Y-64.428
X72.63Y-105.09
X72.645Y-108.171
X72.676Y-79.313
X72.74Y-69.242
X72.803Y-123.316
X72.882Y-100.135
X72.922Y-113.042
X72.934Y-62.144
X72.939Y-66.903
X73.024Y-77.12
X73.033Y-95.196
X73.036Y-87.229
X73.049Y-117.426
X73.051Y-133.392
X73.066Y-120.558
X73.142Y-138.439
X73.175Y-135.657
X73.28Y-127.66
X73.36Y-130.37
X74.859Y-133.118
X74.88Y-120.817
X74.895Y-128.316
X74.932Y-95.44
X74.948Y-64.92
X74.963Y-67.51
X74.999Y-79.44
X75.007Y-115.074
X75.122Y-123.196
X75.15Y-105.5
X75.16Y-74.9
X75.161Y-82.588
X75.187Y-135.878
X75.214Y-87.791
X75.322Y-97.492
X75.375Y-77.455
X75.411Y-131.027
X75.692Y-62.08
X75.74Y-69.419
X75.768Y-138.248
X76.275Y-101.825
X77.01Y-86.13
X77.25Y-113.1
X77.34Y-109.96
X77.43Y-97.78
X77.46Y-103.27
X77.47Y-94.8
X77.723Y-79.289
X77.8Y-69.14
X77.806Y-123.193
X77.891Y-61.613
X77.894Y-107.911
X77.983Y-132.725
X78.067Y-138.141
X78.11Y-118.04
X78.152Y-66.839
X78.156Y-81.917
X78.248Y-64.398
X78.26Y-115.596
X79.95Y-129.06
X79.972Y-62.395
X80.282Y-133.051
X80.319Y-79.776
X80.433Y-138.354
X80.46Y-66.99
X80.506Y-115.204
X80.736Y-64.983
X80.753Y-75.11
X80.782Y-82.078
X80.85Y-118.09
X81.03Y-120.02
X81.62Y-97.83
X82.448Y-64.954
X82.528Y-79.301
X82.62Y-81.98
X82.72Y-138.214
X83.302Y-61.821
X83.335Y-90.388
X83.34Y-93.64
X83.56Y-118.13
X83.94Y-133.43
X84.13Y-97.0
X84.46Y-124.26
X84.69Y-70.17
X84.72Y-137.84
X84.91Y-65.24
X85.0Y-127.92
X85.16Y-73.54
X85.183Y-90.073
X85.292Y-80.229
X85.325Y-103.379
X85.79Y-134.34
X85.856Y-117.939
X85.88Y-62.69
X86.07Y-87.86
X87.574Y-61.697
X87.63Y-137.32
X87.65Y-124.83
X87.725Y-64.376
X87.76Y-134.24
X87.79Y-70.53
X87.875Y-98.275
X87.9Y-83.0
X87.9Y-117.89
X88.875Y-87.7
X89.175Y-102.6
X89.4Y-111.175
X89.86Y-127.42
X90.11Y-73.51
X90.17Y-137.21
X90.174Y-133.242
X90.19Y-105.51
X90.227Y-65.0
X90.475Y-90.025
X90.775Y-62.294
X91.125Y-104.3
X92.59Y-128.58
X92.61Y-124.88
X92.61Y-131.11
X92.612Y-115.627
X92.622Y-61.83
X92.66Y-63.93
X92.67Y-74.38
X92.945Y-133.168
X93.0Y-100.75
X93.01Y-109.46
X93.025Y-85.825
X93.03Y-90.89
X93.039Y-117.747
X93.2Y-107.75
X93.202Y-138.304
X93.44Y-79.34
X93.74Y-114.26
X93.75Y-112.125
X93.775Y-110.35
X93.8Y-82.75
X93.89Y-105.0
X94.375Y-93.75
X94.4Y-94.925
X95.2Y-128.43
X95.3Y-74.34
X95.3Y-107.175
X95.388Y-64.706
X95.438Y-92.561
X95.446Y-67.425
X95.471Y-138.139
X95.5Y-99.075
X95.59Y-83.1
X95.889Y-115.681
X96.046Y-62.46
X96.47Y-70.17
X96.68Y-124.91
X97.12Y-82.91
X97.31Y-133.55
X97.37Y-130.07
X97.829Y-67.335
X97.92Y-128.47
X98.006Y-105.214
X98.135Y-107.63
X98.142Y-64.631
X98.198Y-62.126
X98.36Y-111.25
X98.4Y-112.92
X98.604Y-137.861
X98.621Y-102.648
X98.7Y-83.18
X98.9Y-89.473
X99.0Y-71.15
X99.54Y-127.23
X99.55Y-119.84
X100.2Y-107.68
X100.295Y-138.055
X100.37Y-110.15
X100.479Y-61.827
X100.517Y-64.467
X100.55Y-130.39
X100.552Y-102.743
X100.598Y-67.215
X100.69Y-104.84
X100.975Y-118.375
X101.05Y-133.41
X102.795Y-133.051
X102.875Y-85.15
X102.9Y-88.825
X102.997Y-64.877
X103.074Y-137.987
X103.077Y-100.466
X103.26Y-136.116
X103.5Y-83.225
X103.5Y-118.275
X103.525Y-116.425
X103.615Y-62.276
X103.619Y-67.264
X104.54Y-74.65
X105.489Y-137.996
X105.69Y-136.23
X105.698Y-118.23
X105.83Y-122.83
X105.842Y-80.001
X105.887Y-64.631
X106.106Y-61.992
X106.58Y-133.31
X107.22Y-83.0
X107.33Y-120.82
X107.448Y-86.273
X107.8Y-117.275
X108.09Y-111.11
X108.195Y-64.35
X108.21Y-136.04
X108.217Y-66.72
X108.53Y-72.08
X108.677Y-137.774
X108.691Y-61.849
X109.05Y-133.2
X109.28Y-126.56
X109.28Y-129.08
X110.17Y-101.71
X110.36Y-74.57
X110.644Y-64.144
X110.804Y-100.023
X110.817Y-137.768
X110.821Y-71.807
X111.119Y-135.794
X111.222Y-67.142
X111.228Y-61.758
X111.314Y-97.514
X112.35Y-122.4
X112.44Y-74.63
X112.475Y-80.5
X112.5Y-78.075
X112.5Y-111.675
X112.5Y-115.1
X112.525Y-88.65
X113.106Y-64.199
X113.125Y-93.125
X113.175Y-102.75
X113.199Y-61.949
X113.256Y-128.5
X113.27Y-72.2
X113.36Y-67.007
X113.375Y-108.08
X113.54Y-133.3
X113.59Y-138.453
X113.642Y-111.032
X113.825Y-78.025
X114.97Y-89.07
X115.26Y-123.33
X115.965Y-136.103
X116.059Y-98.732
X116.059Y-99.875
X116.216Y-64.73
X116.219Y-61.964
X116.283Y-66.854
X116.388Y-133.521
X116.425Y-83.525
X116.55Y-86.9
X116.6Y-117.875
X116.65Y-81.6
X116.65Y-115.25
X116.675Y-82.45
X116.675Y-85.475
X116.675Y-116.45
X116.675Y-119.45
X116.8Y-121.075
X117.075Y-98.732
X117.075Y-99.875
X118.04Y-125.94
X118.07Y-128.65
X118.072Y-135.743
X118.091Y-98.732
X118.091Y-99.875
X118.25Y-66.98
X118.265Y-133.273
X118.287Y-61.984
X118.34Y-131.4
X118.367Y-74.662
X118.506Y-72.587
X118.675Y-78.55
X118.951Y-64.621
X119.07Y-107.25
X119.09Y-124.02
X120.275Y-93.125
X120.287Y-101.387
X120.745Y-62.438
X120.75Y-111.525
X120.789Y-66.81
X120.87Y-103.14
X120.983Y-64.593
X121.175Y-81.75
X121.19Y-112.43
X121.222Y-135.739
X121.327Y-132.778
X121.71Y-101.465
X122.225Y-112.5
X123.18Y-94.43
X123.32Y-61.766
X123.361Y-97.345
X123.819Y-64.466
X123.825Y-135.307
X124.05Y-79.7
X124.15Y-101.9
X124.175Y-99.875
X126.037Y-120.062
X126.039Y-79.434
X126.189Y-71.834
X126.229Y-74.38
X126.272Y-130.774
X126.334Y-77.301
X126.347Y-135.404
X126.42Y-62.221
X126.45Y-108.7
X126.45Y-110.0
X126.47Y-127.72
X126.475Y-91.25
X126.495Y-113.033
X126.498Y-64.544
X126.5Y-87.475
X126.5Y-88.75
X126.5Y-90.05
X126.51Y-117.84
X126.58Y-115.38
X126.71Y-122.77
X126.8Y-133.55
X126.86Y-125.8
X127.03Y-67.67
X127.725Y-100.975
X127.825Y-103.075
X127.85Y-94.35
X128.25Y-110.047
X128.256Y-82.752
X128.288Y-113.222
X128.291Y-87.362
X128.338Y-71.84
X128.377Y-64.307
X128.391Y-79.693
X128.395Y-127.89
X128.494Y-84.667
X128.514Y-118.127
X128.52Y-74.839
X128.587Y-135.899
X128.666Y-132.903
X128.725Y-77.25
X128.745Y-123.067
X128.768Y-130.288
X128.779Y-115.366
X128.78Y-120.51
X128.85Y-97.66
X128.889Y-107.703
X128.956Y-125.399
X129.042Y-62.027
X129.049Y-66.944
X129.07Y-90.066
X129.45Y-102.45
X130.704Y-64.799
X130.729Y-89.872
X130.843Y-84.46
X130.848Y-135.462
X130.864Y-127.847
X130.964Y-87.231
X130.968Y-62.287
X130.976Y-82.773
X131.141Y-133.325
X131.152Y-122.927
X131.166Y-72.195
X131.172Y-130.79
X131.175Y-74.582
X131.239Y-67.527
X131.276Y-125.294
X131.305Y-79.801
X131.324Y-76.947
X132.275Y-121.925
X132.82Y-94.34
X133.453Y-62.065
X133.47Y-120.33
X133.496Y-135.494
X133.59Y-100.59
X133.66Y-98.43
X133.73Y-102.79
X133.825Y-104.725
X134.048Y-64.078
X134.375Y-79.675
X135.64Y-101.47
X135.7Y-97.03
X135.73Y-99.02
X135.8Y-103.63
X135.825Y-135.472
X136.025Y-91.175
X136.1Y-123.24
X136.294Y-61.969
X136.737Y-64.938
X136.775Y-108.6
X138.413Y-135.905
X139.05Y-66.981
X139.68Y-64.67
X140.98Y-133.375
X141.1Y-66.67
X141.604Y-64.316
X143.473Y-64.14
X143.64Y-133.414
X143.7Y-131.05
X143.775Y-128.525
X143.825Y-125.925
X143.875Y-123.375
X144.5Y-120.925
X144.675Y-118.35
X144.75Y-115.775
X145.225Y-113.25
X145.933Y-64.584
X146.612Y-74.7
X146.63Y-84.84
X148.784Y-64.315
X148.812Y-72.3
X149.398Y-74.523
X151.188Y-74.715
X151.427Y-82.355
X151.447Y-84.892
X151.829Y-69.992
X152.025Y-72.875
X153.59Y-120.77
X153.617Y-102.607
X153.698Y-90.413
X153.732Y-92.152
X153.738Y-94.579
X153.79Y-108.05
X153.799Y-133.474
X153.976Y-97.997
X153.978Y-135.959
X154.051Y-118.014
X154.055Y-113.227
X154.069Y-87.232
X154.185Y-115.685
X154.23Y-84.642
X154.37Y-110.632
X155.64Y-105.56
X156.101Y-92.807
X156.19Y-118.21
X156.316Y-89.467
X156.449Y-69.732
X156.519Y-95.388
X156.52Y-115.76
X156.619Y-64.168
X156.69Y-136.07
X156.73Y-74.57
X156.753Y-84.935
X156.76Y-72.29
X156.77Y-113.26
X156.785Y-108.03
X156.866Y-110.387
X156.89Y-133.52
X156.94Y-103.03
X156.968Y-100.208
X157.043Y-87.573
X158.627Y-84.97
X158.664Y-87.435
X158.675Y-103.035
X158.7Y-75.7
X158.84Y-72.28
X158.85Y-92.409
X158.88Y-64.402
X158.967Y-128.232
X158.997Y-115.673
X159.05Y-108.2
X159.281Y-105.285
X159.325Y-133.492
X159.347Y-89.496
X159.392Y-100.226
X159.397Y-94.917
X159.45Y-97.777
X159.507Y-130.965
X159.545Y-69.446
X161.216Y-133.24
X161.282Y-87.669
X161.368Y-102.828
X161.8Y-92.692
X161.819Y-100.209
X161.83Y-84.93
X161.856Y-125.936
X161.875Y-64.114
X161.876Y-69.249
X161.93Y-136.19
X162.065Y-90.09
X162.122Y-94.789
X162.13Y-105.54
X162.65Y-128.55
X162.9Y-108.225
X163.58Y-133.53
X163.76Y-92.92
X163.78Y-66.88
X163.808Y-95.026
X163.83Y-130.87
X163.834Y-84.746
X163.84Y-90.73
X163.846Y-79.568
X163.86Y-98.06
X163.886Y-74.354
X163.99Y-100.27
X164.05Y-108.125
X164.143Y-125.728
X164.24Y-64.795
X164.41Y-69.27
X164.475Y-123.172
X164.514Y-128.067
X164.515Y-87.281
X164.62Y-77.135
X164.643Y-135.909
X164.674Y-110.402
X165.825Y-131.2
X166.0Y-87.16
X166.05Y-126.025
X166.362Y-85.059
X166.364Y-74.463
X166.366Y-128.411
X166.595Y-123.346
X166.61Y-133.58
X166.659Y-108.188
X166.718Y-120.274
X166.77Y-90.54
X166.85Y-110.825
X166.91Y-92.8
X166.967Y-72.407
X166.994Y-94.885
X167.01Y-105.64
X167.088Y-69.44
X167.11Y-103.47
X168.11Y-85.77
X168.11Y-98.14
X168.12Y-91.61
X168.12Y-100.3
X168.39Y-89.14
X168.575Y-133.55
X168.625Y-123.45
X168.856Y-128.12
X168.921Y-125.577
X169.049Y-130.959
X169.07Y-84.424
X169.2Y-136.08
X169.225Y-117.916
X169.395Y-72.617
X169.49Y-64.7
X169.631Y-74.745
X169.65Y-120.975
X170.625Y-113.4
X170.63Y-115.73
X170.86Y-103.42
X170.89Y-105.63
X170.92Y-94.72
X171.363Y-67.183
X171.415Y-108.046
X171.511Y-77.633
X171.62Y-123.34
X171.65Y-125.97
X171.8Y-98.15
X171.805Y-128.41
X171.865Y-92.904
X171.88Y-100.29
X171.98Y-88.59
X172.022Y-69.533
X172.051Y-110.309
X172.138Y-64.676
X172.16Y-113.27
X172.169Y-85.061
X172.475Y-118.5
X173.78Y-108.22
X173.924Y-130.649
X174.029Y-79.774
X174.056Y-85.038
X174.137Y-125.421
X174.343Y-135.775
X174.54Y-113.26
X174.55Y-115.95
X174.61Y-92.5
X174.63Y-97.99
X174.661Y-94.813
X174.69Y-102.51
X174.709Y-110.429
X174.714Y-66.733
X175.43Y-85.71
X175.58Y-105.59
X175.59Y-100.32
X175.74Y-89.04
X176.419Y-123.325
X176.44Y-130.749
X176.495Y-115.439
X176.507Y-133.388
X176.549Y-108.15
X176.566Y-84.887
X176.609Y-120.645
X176.706Y-86.952
X176.873Y-136.113
X176.905Y-125.491
X176.982Y-128.273
X177.093Y-118.198
X177.203Y-113.033
X178.65Y-77.25
X178.75Y-79.6
X178.999Y-107.804
X179.01Y-74.3
X179.1Y-67.522
X179.194Y-123.019
X179.23Y-135.665
X179.248Y-64.586
X179.308Y-100.216
X179.35Y-118.28
X179.367Y-72.368
X179.399Y-94.539
X179.448Y-89.925
X179.47Y-125.896
X179.63Y-102.93
X179.653Y-133.425
X179.669Y-110.677
X179.734Y-87.711
X179.789Y-120.682
X179.816Y-97.967
X179.83Y-92.19
X179.87Y-84.497
X179.9Y-61.664
X180.18Y-113.16
X181.33Y-136.1
X181.522Y-94.614
X181.588Y-130.617
X181.59Y-89.652
X181.632Y-107.855
X181.788Y-102.639
X181.817Y-82.414
X181.868Y-133.413
X181.908Y-125.681
X181.973Y-92.561
X182.036Y-97.82
X182.083Y-64.839
X182.174Y-128.452
X182.239Y-74.597
X182.262Y-105.267
X182.374Y-100.346
X182.404Y-87.629
X182.42Y-118.3
X182.433Y-69.892
X182.7Y-120.89
X183.92Y-115.85
X184.028Y-110.578
X184.034Y-69.383
X184.067Y-105.229
X184.122Y-85.24
X184.143Y-130.773
X184.259Y-94.626
X184.295Y-128.142
X184.3Y-98.02
X184.336Y-100.512
X184.357Y-123.316
X184.399Y-72.57
X184.4Y-89.864
X184.452Y-102.847
X184.562Y-64.594
X184.598Y-133.349
X184.657Y-92.737
X184.68Y-108.02
X184.759Y-82.613
X184.949Y-117.956
X184.989Y-138.339
X186.37Y-69.32
X186.38Y-136.27
X186.53Y-97.98
X186.54Y-120.84
X186.592Y-128.235
X186.593Y-81.888
X186.71Y-66.26
X186.719Y-102.973
X186.811Y-87.064
X186.85Y-80.01
X186.92Y-138.31
X186.978Y-92.367
X187.013Y-94.673
X187.06Y-113.21
X187.07Y-108.117
X187.15Y-110.64
X187.193Y-122.791
X187.306Y-105.246
X187.525Y-85.231
X187.94Y-62.23
X188.78Y-71.45
X189.473Y-69.946
X189.82Y-62.69
X191.857Y-62.14
X192.111Y-82.695
X192.238Y-69.998
X192.24Y-84.903
X192.486Y-64.251
X192.87Y-72.15
X194.2Y-110.724
X194.248Y-69.745
X194.361Y-61.698
X194.469Y-122.527
X194.477Y-82.312
X194.57Y-64.051
X194.573Y-112.921
X194.633Y-125.911
X194.646Y-137.756
X194.715Y-135.876
X194.765Y-104.958
X194.832Y-120.212
X194.96Y-118.142
X194.98Y-87.78
X194.982Y-85.041
X194.99Y-95.42
X195.029Y-108.023
X195.031Y-102.355
X195.049Y-66.805
X195.051Y-133.361
X195.078Y-130.258
X195.33Y-80.29
X196.812Y-82.421
X196.817Y-86.964
X196.878Y-84.417
X196.954Y-104.799
X196.967Y-135.516
X196.978Y-62.244
X197.026Y-115.406
X197.04Y-133.1
X197.114Y-130.997
X197.239Y-138.202
X197.306Y-97.728
X197.327Y-120.291
X197.33Y-118.58
X197.46Y-110.302
X197.461Y-90.039
X197.464Y-69.874
X197.479Y-107.922
X197.511Y-112.97
X197.553Y-67.062
X197.565Y-64.526
X199.09Y-87.57
X199.24Y-84.07
X199.342Y-67.382
X199.37Y-89.28
X199.425Y-120.704
X199.444Y-92.909
X200.165Y-130.141
X201.834Y-77.461
X201.994Y-90.139
X202.009Y-74.545
X202.021Y-95.159
X202.124Y-92.586
X202.213Y-84.791
X202.265Y-120.761
X202.285Y-87.432
X202.305Y-72.48
X202.614Y-79.637
X202.681Y-81.847
X202.754Y-69.766
X202.88Y-119.04
X202.9Y-105.22
X203.02Y-97.29
X203.12Y-113.35
X203.14Y-110.79
X203.16Y-115.8
X203.21Y-100.48
X203.21Y-103.1
X204.362Y-105.092
X204.387Y-89.887
X204.39Y-76.93
X204.41Y-75.1
X204.42Y-79.38
X204.5Y-71.759
X204.508Y-69.404
X204.535Y-87.256
X204.683Y-92.567
X204.724Y-112.774
X204.85Y-82.142
X204.865Y-84.879
X204.972Y-102.947
X204.998Y-94.888
X205.002Y-130.493
X205.031Y-117.84
X205.095Y-115.205
X205.108Y-110.696
X205.122Y-67.353
X205.197Y-107.585
X205.209Y-128.434
X205.212Y-100.511
X205.216Y-97.591
X205.279Y-119.945
T2
X132.8Y-96.875
X136.425Y-70.475
X136.425Y-71.725
X136.425Y-73.0
X136.425Y-74.275
X136.425Y-75.55
X136.425Y-76.825
X136.425Y-109.97
X136.425Y-111.24
X136.425Y-112.5
X136.425Y-113.775
X136.425Y-115.05
X136.425Y-116.35
X136.425Y-117.6
X136.425Y-118.85
X136.425Y-124.45
X136.425Y-125.725
X136.425Y-127.0
X136.425Y-128.275
X136.425Y-129.525
X136.425Y-130.8
X136.425Y-132.05
X136.425Y-133.325
X144.225Y-71.075
X154.45Y-82.5
X157.775Y-71.1
X168.225Y-64.175
X175.05Y-76.75
X177.5Y-70.75
X191.075Y-74.35
X194.45Y-78.725
X196.6Y-72.05
T3
X79.0Y-93.175
X79.0Y-114.06
X81.54Y-90.635
X81.54Y-95.715
X81.54Y-111.52
X81.54Y-116.6
T4
X147.65Y-87.875
X147.65Y-90.415
X147.65Y-95.495
X147.65Y-98.035
X147.65Y-100.575
X147.65Y-103.115
X147.65Y-105.655
X147.65Y-108.195
X147.65Y-110.735
X147.65Y-113.275
X147.65Y-115.815
X147.65Y-118.355
X147.65Y-120.895
X147.65Y-123.435
X147.65Y-125.975
X147.65Y-128.515
X147.65Y-131.055
X147.65Y-133.595
X147.65Y-136.135
X150.19Y-87.875
X150.19Y-90.415
X150.19Y-92.955
X150.19Y-95.495
X150.19Y-98.035
X150.19Y-100.575
X150.19Y-103.115
X150.19Y-105.655
X150.19Y-108.195
X150.19Y-110.735
X150.19Y-113.275
X150.19Y-115.815
X150.19Y-118.355
X150.19Y-120.895
X150.19Y-123.435
X150.19Y-125.975
X150.19Y-128.515
X150.19Y-131.055
X150.19Y-133.595
X150.19Y-136.135
X189.653Y-87.875
X189.653Y-90.415
X189.653Y-95.495
X189.653Y-98.035
X189.653Y-100.575
X189.653Y-103.115
X189.653Y-105.655
X189.653Y-108.195
X189.653Y-110.735
X189.653Y-113.275
X189.653Y-115.815
X189.653Y-118.355
X189.653Y-120.895
X189.653Y-123.435
X189.653Y-125.975
X189.653Y-128.515
X189.653Y-131.055
X189.653Y-133.595
X189.653Y-136.135
X192.193Y-87.875
X192.193Y-90.415
X192.193Y-92.955
X192.193Y-95.495
X192.193Y-98.035
X192.193Y-100.575
X192.193Y-103.115
X192.193Y-105.655
X192.193Y-108.195
X192.193Y-110.735
X192.193Y-113.275
X192.193Y-115.815
X192.193Y-118.355
X192.193Y-120.895
X192.193Y-123.435
X192.193Y-125.975
X192.193Y-128.515
X192.193Y-131.055
X192.193Y-133.595
X192.193Y-136.135
X200.775Y-99.32
X200.775Y-101.86
X200.775Y-104.4
X200.775Y-106.94
X200.775Y-109.48
X200.775Y-112.02
X200.775Y-114.56
X200.775Y-117.1
T5
X63.65Y-90.55
X63.65Y-108.55
X66.9Y-94.55
X66.9Y-112.55
X68.15Y-86.55
X68.15Y-104.55
T6
X60.935Y-123.195
X60.975Y-129.875
X61.4Y-69.03
X61.44Y-75.71
X64.375Y-126.475
X64.395Y-126.425
X64.84Y-72.31
X64.86Y-72.29
X67.535Y-123.185
X67.585Y-129.765
X68.0Y-69.02
X68.05Y-75.6
X200.2Y-125.9
T7
X61.855Y-123.885
X61.855Y-128.965
X62.32Y-69.75
X62.32Y-74.83
X66.935Y-123.885
X66.935Y-128.965
X67.4Y-69.75
X67.4Y-74.83
X197.66Y-123.36
X197.66Y-128.44
X202.74Y-123.36
X202.74Y-128.44
T8
X64.15Y-83.3
X64.15Y-115.8
M30
