%TF.GenerationSoftware,KiCad,Pcbnew,8.0.7*%
%TF.CreationDate,2025-03-14T10:19:42+01:00*%
%TF.ProjectId,MISRC_v2.5,4d495352-435f-4763-922e-352e6b696361,3.0*%
%TF.SameCoordinates,Original*%
%TF.FileFunction,Drillmap*%
%TF.FilePolarity,Positive*%
%FSLAX45Y45*%
G04 Gerber Fmt 4.5, Leading zero omitted, Abs format (unit mm)*
G04 Created by KiCad (PCBNEW 8.0.7) date 2025-03-14 10:19:42*
%MOMM*%
%LPD*%
G01*
G04 APERTURE LIST*
%ADD10C,0.100000*%
%ADD11C,0.200000*%
%ADD12C,0.320000*%
G04 APERTURE END LIST*
D10*
X20675000Y-13950000D02*
X20675000Y-5950000D01*
X5675000Y-13950000D02*
X20675000Y-13950000D01*
X20675000Y-5950000D02*
X5675000Y-5950000D01*
X5675000Y-5950000D02*
X5675000Y-13950000D01*
D11*
D12*
X6040000Y-6160000D02*
X6360000Y-6480000D01*
X6360000Y-6160000D02*
X6040000Y-6480000D01*
X6040000Y-13410000D02*
X6360000Y-13730000D01*
X6360000Y-13410000D02*
X6040000Y-13730000D01*
X20040000Y-6160000D02*
X20360000Y-6480000D01*
X20360000Y-6160000D02*
X20040000Y-6480000D01*
X20040000Y-13410000D02*
X20360000Y-13730000D01*
X20360000Y-13410000D02*
X20040000Y-13730000D01*
D11*
X5930777Y-14266484D02*
X5930777Y-14066484D01*
X5930777Y-14066484D02*
X5978396Y-14066484D01*
X5978396Y-14066484D02*
X6006967Y-14076008D01*
X6006967Y-14076008D02*
X6026015Y-14095055D01*
X6026015Y-14095055D02*
X6035539Y-14114103D01*
X6035539Y-14114103D02*
X6045062Y-14152198D01*
X6045062Y-14152198D02*
X6045062Y-14180769D01*
X6045062Y-14180769D02*
X6035539Y-14218865D01*
X6035539Y-14218865D02*
X6026015Y-14237912D01*
X6026015Y-14237912D02*
X6006967Y-14256960D01*
X6006967Y-14256960D02*
X5978396Y-14266484D01*
X5978396Y-14266484D02*
X5930777Y-14266484D01*
X6130777Y-14266484D02*
X6130777Y-14133150D01*
X6130777Y-14171246D02*
X6140301Y-14152198D01*
X6140301Y-14152198D02*
X6149824Y-14142674D01*
X6149824Y-14142674D02*
X6168872Y-14133150D01*
X6168872Y-14133150D02*
X6187920Y-14133150D01*
X6254586Y-14266484D02*
X6254586Y-14133150D01*
X6254586Y-14066484D02*
X6245062Y-14076008D01*
X6245062Y-14076008D02*
X6254586Y-14085531D01*
X6254586Y-14085531D02*
X6264110Y-14076008D01*
X6264110Y-14076008D02*
X6254586Y-14066484D01*
X6254586Y-14066484D02*
X6254586Y-14085531D01*
X6378396Y-14266484D02*
X6359348Y-14256960D01*
X6359348Y-14256960D02*
X6349824Y-14237912D01*
X6349824Y-14237912D02*
X6349824Y-14066484D01*
X6483158Y-14266484D02*
X6464110Y-14256960D01*
X6464110Y-14256960D02*
X6454586Y-14237912D01*
X6454586Y-14237912D02*
X6454586Y-14066484D01*
X6711729Y-14266484D02*
X6711729Y-14066484D01*
X6711729Y-14066484D02*
X6778396Y-14209341D01*
X6778396Y-14209341D02*
X6845062Y-14066484D01*
X6845062Y-14066484D02*
X6845062Y-14266484D01*
X7026015Y-14266484D02*
X7026015Y-14161722D01*
X7026015Y-14161722D02*
X7016491Y-14142674D01*
X7016491Y-14142674D02*
X6997443Y-14133150D01*
X6997443Y-14133150D02*
X6959348Y-14133150D01*
X6959348Y-14133150D02*
X6940301Y-14142674D01*
X7026015Y-14256960D02*
X7006967Y-14266484D01*
X7006967Y-14266484D02*
X6959348Y-14266484D01*
X6959348Y-14266484D02*
X6940301Y-14256960D01*
X6940301Y-14256960D02*
X6930777Y-14237912D01*
X6930777Y-14237912D02*
X6930777Y-14218865D01*
X6930777Y-14218865D02*
X6940301Y-14199817D01*
X6940301Y-14199817D02*
X6959348Y-14190293D01*
X6959348Y-14190293D02*
X7006967Y-14190293D01*
X7006967Y-14190293D02*
X7026015Y-14180769D01*
X7121253Y-14133150D02*
X7121253Y-14333150D01*
X7121253Y-14142674D02*
X7140301Y-14133150D01*
X7140301Y-14133150D02*
X7178396Y-14133150D01*
X7178396Y-14133150D02*
X7197443Y-14142674D01*
X7197443Y-14142674D02*
X7206967Y-14152198D01*
X7206967Y-14152198D02*
X7216491Y-14171246D01*
X7216491Y-14171246D02*
X7216491Y-14228388D01*
X7216491Y-14228388D02*
X7206967Y-14247436D01*
X7206967Y-14247436D02*
X7197443Y-14256960D01*
X7197443Y-14256960D02*
X7178396Y-14266484D01*
X7178396Y-14266484D02*
X7140301Y-14266484D01*
X7140301Y-14266484D02*
X7121253Y-14256960D01*
X7302205Y-14247436D02*
X7311729Y-14256960D01*
X7311729Y-14256960D02*
X7302205Y-14266484D01*
X7302205Y-14266484D02*
X7292682Y-14256960D01*
X7292682Y-14256960D02*
X7302205Y-14247436D01*
X7302205Y-14247436D02*
X7302205Y-14266484D01*
X7302205Y-14142674D02*
X7311729Y-14152198D01*
X7311729Y-14152198D02*
X7302205Y-14161722D01*
X7302205Y-14161722D02*
X7292682Y-14152198D01*
X7292682Y-14152198D02*
X7302205Y-14142674D01*
X7302205Y-14142674D02*
X7302205Y-14161722D01*
X5470000Y-14495000D02*
X5670000Y-14695000D01*
X5670000Y-14495000D02*
X5470000Y-14695000D01*
X5911729Y-14486484D02*
X6035539Y-14486484D01*
X6035539Y-14486484D02*
X5968872Y-14562674D01*
X5968872Y-14562674D02*
X5997443Y-14562674D01*
X5997443Y-14562674D02*
X6016491Y-14572198D01*
X6016491Y-14572198D02*
X6026015Y-14581722D01*
X6026015Y-14581722D02*
X6035539Y-14600769D01*
X6035539Y-14600769D02*
X6035539Y-14648388D01*
X6035539Y-14648388D02*
X6026015Y-14667436D01*
X6026015Y-14667436D02*
X6016491Y-14676960D01*
X6016491Y-14676960D02*
X5997443Y-14686484D01*
X5997443Y-14686484D02*
X5940301Y-14686484D01*
X5940301Y-14686484D02*
X5921253Y-14676960D01*
X5921253Y-14676960D02*
X5911729Y-14667436D01*
X6121253Y-14667436D02*
X6130777Y-14676960D01*
X6130777Y-14676960D02*
X6121253Y-14686484D01*
X6121253Y-14686484D02*
X6111729Y-14676960D01*
X6111729Y-14676960D02*
X6121253Y-14667436D01*
X6121253Y-14667436D02*
X6121253Y-14686484D01*
X6206967Y-14505531D02*
X6216491Y-14496008D01*
X6216491Y-14496008D02*
X6235539Y-14486484D01*
X6235539Y-14486484D02*
X6283158Y-14486484D01*
X6283158Y-14486484D02*
X6302205Y-14496008D01*
X6302205Y-14496008D02*
X6311729Y-14505531D01*
X6311729Y-14505531D02*
X6321253Y-14524579D01*
X6321253Y-14524579D02*
X6321253Y-14543627D01*
X6321253Y-14543627D02*
X6311729Y-14572198D01*
X6311729Y-14572198D02*
X6197443Y-14686484D01*
X6197443Y-14686484D02*
X6321253Y-14686484D01*
X6445062Y-14486484D02*
X6464110Y-14486484D01*
X6464110Y-14486484D02*
X6483158Y-14496008D01*
X6483158Y-14496008D02*
X6492682Y-14505531D01*
X6492682Y-14505531D02*
X6502205Y-14524579D01*
X6502205Y-14524579D02*
X6511729Y-14562674D01*
X6511729Y-14562674D02*
X6511729Y-14610293D01*
X6511729Y-14610293D02*
X6502205Y-14648388D01*
X6502205Y-14648388D02*
X6492682Y-14667436D01*
X6492682Y-14667436D02*
X6483158Y-14676960D01*
X6483158Y-14676960D02*
X6464110Y-14686484D01*
X6464110Y-14686484D02*
X6445062Y-14686484D01*
X6445062Y-14686484D02*
X6426015Y-14676960D01*
X6426015Y-14676960D02*
X6416491Y-14667436D01*
X6416491Y-14667436D02*
X6406967Y-14648388D01*
X6406967Y-14648388D02*
X6397443Y-14610293D01*
X6397443Y-14610293D02*
X6397443Y-14562674D01*
X6397443Y-14562674D02*
X6406967Y-14524579D01*
X6406967Y-14524579D02*
X6416491Y-14505531D01*
X6416491Y-14505531D02*
X6426015Y-14496008D01*
X6426015Y-14496008D02*
X6445062Y-14486484D01*
X6635539Y-14486484D02*
X6654586Y-14486484D01*
X6654586Y-14486484D02*
X6673634Y-14496008D01*
X6673634Y-14496008D02*
X6683158Y-14505531D01*
X6683158Y-14505531D02*
X6692682Y-14524579D01*
X6692682Y-14524579D02*
X6702205Y-14562674D01*
X6702205Y-14562674D02*
X6702205Y-14610293D01*
X6702205Y-14610293D02*
X6692682Y-14648388D01*
X6692682Y-14648388D02*
X6683158Y-14667436D01*
X6683158Y-14667436D02*
X6673634Y-14676960D01*
X6673634Y-14676960D02*
X6654586Y-14686484D01*
X6654586Y-14686484D02*
X6635539Y-14686484D01*
X6635539Y-14686484D02*
X6616491Y-14676960D01*
X6616491Y-14676960D02*
X6606967Y-14667436D01*
X6606967Y-14667436D02*
X6597443Y-14648388D01*
X6597443Y-14648388D02*
X6587920Y-14610293D01*
X6587920Y-14610293D02*
X6587920Y-14562674D01*
X6587920Y-14562674D02*
X6597443Y-14524579D01*
X6597443Y-14524579D02*
X6606967Y-14505531D01*
X6606967Y-14505531D02*
X6616491Y-14496008D01*
X6616491Y-14496008D02*
X6635539Y-14486484D01*
X6787920Y-14686484D02*
X6787920Y-14553150D01*
X6787920Y-14572198D02*
X6797443Y-14562674D01*
X6797443Y-14562674D02*
X6816491Y-14553150D01*
X6816491Y-14553150D02*
X6845063Y-14553150D01*
X6845063Y-14553150D02*
X6864110Y-14562674D01*
X6864110Y-14562674D02*
X6873634Y-14581722D01*
X6873634Y-14581722D02*
X6873634Y-14686484D01*
X6873634Y-14581722D02*
X6883158Y-14562674D01*
X6883158Y-14562674D02*
X6902205Y-14553150D01*
X6902205Y-14553150D02*
X6930777Y-14553150D01*
X6930777Y-14553150D02*
X6949824Y-14562674D01*
X6949824Y-14562674D02*
X6959348Y-14581722D01*
X6959348Y-14581722D02*
X6959348Y-14686484D01*
X7054586Y-14686484D02*
X7054586Y-14553150D01*
X7054586Y-14572198D02*
X7064110Y-14562674D01*
X7064110Y-14562674D02*
X7083158Y-14553150D01*
X7083158Y-14553150D02*
X7111729Y-14553150D01*
X7111729Y-14553150D02*
X7130777Y-14562674D01*
X7130777Y-14562674D02*
X7140301Y-14581722D01*
X7140301Y-14581722D02*
X7140301Y-14686484D01*
X7140301Y-14581722D02*
X7149824Y-14562674D01*
X7149824Y-14562674D02*
X7168872Y-14553150D01*
X7168872Y-14553150D02*
X7197443Y-14553150D01*
X7197443Y-14553150D02*
X7216491Y-14562674D01*
X7216491Y-14562674D02*
X7226015Y-14581722D01*
X7226015Y-14581722D02*
X7226015Y-14686484D01*
X7616491Y-14476960D02*
X7445063Y-14734103D01*
X7873634Y-14486484D02*
X7892682Y-14486484D01*
X7892682Y-14486484D02*
X7911729Y-14496008D01*
X7911729Y-14496008D02*
X7921253Y-14505531D01*
X7921253Y-14505531D02*
X7930777Y-14524579D01*
X7930777Y-14524579D02*
X7940301Y-14562674D01*
X7940301Y-14562674D02*
X7940301Y-14610293D01*
X7940301Y-14610293D02*
X7930777Y-14648388D01*
X7930777Y-14648388D02*
X7921253Y-14667436D01*
X7921253Y-14667436D02*
X7911729Y-14676960D01*
X7911729Y-14676960D02*
X7892682Y-14686484D01*
X7892682Y-14686484D02*
X7873634Y-14686484D01*
X7873634Y-14686484D02*
X7854586Y-14676960D01*
X7854586Y-14676960D02*
X7845063Y-14667436D01*
X7845063Y-14667436D02*
X7835539Y-14648388D01*
X7835539Y-14648388D02*
X7826015Y-14610293D01*
X7826015Y-14610293D02*
X7826015Y-14562674D01*
X7826015Y-14562674D02*
X7835539Y-14524579D01*
X7835539Y-14524579D02*
X7845063Y-14505531D01*
X7845063Y-14505531D02*
X7854586Y-14496008D01*
X7854586Y-14496008D02*
X7873634Y-14486484D01*
X8026015Y-14667436D02*
X8035539Y-14676960D01*
X8035539Y-14676960D02*
X8026015Y-14686484D01*
X8026015Y-14686484D02*
X8016491Y-14676960D01*
X8016491Y-14676960D02*
X8026015Y-14667436D01*
X8026015Y-14667436D02*
X8026015Y-14686484D01*
X8226015Y-14686484D02*
X8111729Y-14686484D01*
X8168872Y-14686484D02*
X8168872Y-14486484D01*
X8168872Y-14486484D02*
X8149825Y-14515055D01*
X8149825Y-14515055D02*
X8130777Y-14534103D01*
X8130777Y-14534103D02*
X8111729Y-14543627D01*
X8302206Y-14505531D02*
X8311729Y-14496008D01*
X8311729Y-14496008D02*
X8330777Y-14486484D01*
X8330777Y-14486484D02*
X8378396Y-14486484D01*
X8378396Y-14486484D02*
X8397444Y-14496008D01*
X8397444Y-14496008D02*
X8406968Y-14505531D01*
X8406968Y-14505531D02*
X8416491Y-14524579D01*
X8416491Y-14524579D02*
X8416491Y-14543627D01*
X8416491Y-14543627D02*
X8406968Y-14572198D01*
X8406968Y-14572198D02*
X8292682Y-14686484D01*
X8292682Y-14686484D02*
X8416491Y-14686484D01*
X8587920Y-14486484D02*
X8549825Y-14486484D01*
X8549825Y-14486484D02*
X8530777Y-14496008D01*
X8530777Y-14496008D02*
X8521253Y-14505531D01*
X8521253Y-14505531D02*
X8502206Y-14534103D01*
X8502206Y-14534103D02*
X8492682Y-14572198D01*
X8492682Y-14572198D02*
X8492682Y-14648388D01*
X8492682Y-14648388D02*
X8502206Y-14667436D01*
X8502206Y-14667436D02*
X8511729Y-14676960D01*
X8511729Y-14676960D02*
X8530777Y-14686484D01*
X8530777Y-14686484D02*
X8568872Y-14686484D01*
X8568872Y-14686484D02*
X8587920Y-14676960D01*
X8587920Y-14676960D02*
X8597444Y-14667436D01*
X8597444Y-14667436D02*
X8606968Y-14648388D01*
X8606968Y-14648388D02*
X8606968Y-14600769D01*
X8606968Y-14600769D02*
X8597444Y-14581722D01*
X8597444Y-14581722D02*
X8587920Y-14572198D01*
X8587920Y-14572198D02*
X8568872Y-14562674D01*
X8568872Y-14562674D02*
X8530777Y-14562674D01*
X8530777Y-14562674D02*
X8511729Y-14572198D01*
X8511729Y-14572198D02*
X8502206Y-14581722D01*
X8502206Y-14581722D02*
X8492682Y-14600769D01*
X8730777Y-14486484D02*
X8749825Y-14486484D01*
X8749825Y-14486484D02*
X8768872Y-14496008D01*
X8768872Y-14496008D02*
X8778396Y-14505531D01*
X8778396Y-14505531D02*
X8787920Y-14524579D01*
X8787920Y-14524579D02*
X8797444Y-14562674D01*
X8797444Y-14562674D02*
X8797444Y-14610293D01*
X8797444Y-14610293D02*
X8787920Y-14648388D01*
X8787920Y-14648388D02*
X8778396Y-14667436D01*
X8778396Y-14667436D02*
X8768872Y-14676960D01*
X8768872Y-14676960D02*
X8749825Y-14686484D01*
X8749825Y-14686484D02*
X8730777Y-14686484D01*
X8730777Y-14686484D02*
X8711729Y-14676960D01*
X8711729Y-14676960D02*
X8702206Y-14667436D01*
X8702206Y-14667436D02*
X8692682Y-14648388D01*
X8692682Y-14648388D02*
X8683158Y-14610293D01*
X8683158Y-14610293D02*
X8683158Y-14562674D01*
X8683158Y-14562674D02*
X8692682Y-14524579D01*
X8692682Y-14524579D02*
X8702206Y-14505531D01*
X8702206Y-14505531D02*
X8711729Y-14496008D01*
X8711729Y-14496008D02*
X8730777Y-14486484D01*
X8873634Y-14486484D02*
X8873634Y-14524579D01*
X8949825Y-14486484D02*
X8949825Y-14524579D01*
X9245063Y-14762674D02*
X9235539Y-14753150D01*
X9235539Y-14753150D02*
X9216491Y-14724579D01*
X9216491Y-14724579D02*
X9206968Y-14705531D01*
X9206968Y-14705531D02*
X9197444Y-14676960D01*
X9197444Y-14676960D02*
X9187920Y-14629341D01*
X9187920Y-14629341D02*
X9187920Y-14591246D01*
X9187920Y-14591246D02*
X9197444Y-14543627D01*
X9197444Y-14543627D02*
X9206968Y-14515055D01*
X9206968Y-14515055D02*
X9216491Y-14496008D01*
X9216491Y-14496008D02*
X9235539Y-14467436D01*
X9235539Y-14467436D02*
X9245063Y-14457912D01*
X9406968Y-14553150D02*
X9406968Y-14686484D01*
X9359349Y-14476960D02*
X9311730Y-14619817D01*
X9311730Y-14619817D02*
X9435539Y-14619817D01*
X9664111Y-14686484D02*
X9664111Y-14486484D01*
X9749825Y-14686484D02*
X9749825Y-14581722D01*
X9749825Y-14581722D02*
X9740301Y-14562674D01*
X9740301Y-14562674D02*
X9721253Y-14553150D01*
X9721253Y-14553150D02*
X9692682Y-14553150D01*
X9692682Y-14553150D02*
X9673634Y-14562674D01*
X9673634Y-14562674D02*
X9664111Y-14572198D01*
X9873634Y-14686484D02*
X9854587Y-14676960D01*
X9854587Y-14676960D02*
X9845063Y-14667436D01*
X9845063Y-14667436D02*
X9835539Y-14648388D01*
X9835539Y-14648388D02*
X9835539Y-14591246D01*
X9835539Y-14591246D02*
X9845063Y-14572198D01*
X9845063Y-14572198D02*
X9854587Y-14562674D01*
X9854587Y-14562674D02*
X9873634Y-14553150D01*
X9873634Y-14553150D02*
X9902206Y-14553150D01*
X9902206Y-14553150D02*
X9921253Y-14562674D01*
X9921253Y-14562674D02*
X9930777Y-14572198D01*
X9930777Y-14572198D02*
X9940301Y-14591246D01*
X9940301Y-14591246D02*
X9940301Y-14648388D01*
X9940301Y-14648388D02*
X9930777Y-14667436D01*
X9930777Y-14667436D02*
X9921253Y-14676960D01*
X9921253Y-14676960D02*
X9902206Y-14686484D01*
X9902206Y-14686484D02*
X9873634Y-14686484D01*
X10054587Y-14686484D02*
X10035539Y-14676960D01*
X10035539Y-14676960D02*
X10026015Y-14657912D01*
X10026015Y-14657912D02*
X10026015Y-14486484D01*
X10206968Y-14676960D02*
X10187920Y-14686484D01*
X10187920Y-14686484D02*
X10149825Y-14686484D01*
X10149825Y-14686484D02*
X10130777Y-14676960D01*
X10130777Y-14676960D02*
X10121253Y-14657912D01*
X10121253Y-14657912D02*
X10121253Y-14581722D01*
X10121253Y-14581722D02*
X10130777Y-14562674D01*
X10130777Y-14562674D02*
X10149825Y-14553150D01*
X10149825Y-14553150D02*
X10187920Y-14553150D01*
X10187920Y-14553150D02*
X10206968Y-14562674D01*
X10206968Y-14562674D02*
X10216492Y-14581722D01*
X10216492Y-14581722D02*
X10216492Y-14600769D01*
X10216492Y-14600769D02*
X10121253Y-14619817D01*
X10292682Y-14676960D02*
X10311730Y-14686484D01*
X10311730Y-14686484D02*
X10349825Y-14686484D01*
X10349825Y-14686484D02*
X10368873Y-14676960D01*
X10368873Y-14676960D02*
X10378396Y-14657912D01*
X10378396Y-14657912D02*
X10378396Y-14648388D01*
X10378396Y-14648388D02*
X10368873Y-14629341D01*
X10368873Y-14629341D02*
X10349825Y-14619817D01*
X10349825Y-14619817D02*
X10321253Y-14619817D01*
X10321253Y-14619817D02*
X10302206Y-14610293D01*
X10302206Y-14610293D02*
X10292682Y-14591246D01*
X10292682Y-14591246D02*
X10292682Y-14581722D01*
X10292682Y-14581722D02*
X10302206Y-14562674D01*
X10302206Y-14562674D02*
X10321253Y-14553150D01*
X10321253Y-14553150D02*
X10349825Y-14553150D01*
X10349825Y-14553150D02*
X10368873Y-14562674D01*
X10445063Y-14762674D02*
X10454587Y-14753150D01*
X10454587Y-14753150D02*
X10473634Y-14724579D01*
X10473634Y-14724579D02*
X10483158Y-14705531D01*
X10483158Y-14705531D02*
X10492682Y-14676960D01*
X10492682Y-14676960D02*
X10502206Y-14629341D01*
X10502206Y-14629341D02*
X10502206Y-14591246D01*
X10502206Y-14591246D02*
X10492682Y-14543627D01*
X10492682Y-14543627D02*
X10483158Y-14515055D01*
X10483158Y-14515055D02*
X10473634Y-14496008D01*
X10473634Y-14496008D02*
X10454587Y-14467436D01*
X10454587Y-14467436D02*
X10445063Y-14457912D01*
X10806968Y-14762674D02*
X10797444Y-14753150D01*
X10797444Y-14753150D02*
X10778396Y-14724579D01*
X10778396Y-14724579D02*
X10768873Y-14705531D01*
X10768873Y-14705531D02*
X10759349Y-14676960D01*
X10759349Y-14676960D02*
X10749825Y-14629341D01*
X10749825Y-14629341D02*
X10749825Y-14591246D01*
X10749825Y-14591246D02*
X10759349Y-14543627D01*
X10759349Y-14543627D02*
X10768873Y-14515055D01*
X10768873Y-14515055D02*
X10778396Y-14496008D01*
X10778396Y-14496008D02*
X10797444Y-14467436D01*
X10797444Y-14467436D02*
X10806968Y-14457912D01*
X10883158Y-14553150D02*
X10883158Y-14686484D01*
X10883158Y-14572198D02*
X10892682Y-14562674D01*
X10892682Y-14562674D02*
X10911730Y-14553150D01*
X10911730Y-14553150D02*
X10940301Y-14553150D01*
X10940301Y-14553150D02*
X10959349Y-14562674D01*
X10959349Y-14562674D02*
X10968873Y-14581722D01*
X10968873Y-14581722D02*
X10968873Y-14686484D01*
X11092682Y-14686484D02*
X11073634Y-14676960D01*
X11073634Y-14676960D02*
X11064111Y-14667436D01*
X11064111Y-14667436D02*
X11054587Y-14648388D01*
X11054587Y-14648388D02*
X11054587Y-14591246D01*
X11054587Y-14591246D02*
X11064111Y-14572198D01*
X11064111Y-14572198D02*
X11073634Y-14562674D01*
X11073634Y-14562674D02*
X11092682Y-14553150D01*
X11092682Y-14553150D02*
X11121254Y-14553150D01*
X11121254Y-14553150D02*
X11140301Y-14562674D01*
X11140301Y-14562674D02*
X11149825Y-14572198D01*
X11149825Y-14572198D02*
X11159349Y-14591246D01*
X11159349Y-14591246D02*
X11159349Y-14648388D01*
X11159349Y-14648388D02*
X11149825Y-14667436D01*
X11149825Y-14667436D02*
X11140301Y-14676960D01*
X11140301Y-14676960D02*
X11121254Y-14686484D01*
X11121254Y-14686484D02*
X11092682Y-14686484D01*
X11216492Y-14553150D02*
X11292682Y-14553150D01*
X11245063Y-14486484D02*
X11245063Y-14657912D01*
X11245063Y-14657912D02*
X11254587Y-14676960D01*
X11254587Y-14676960D02*
X11273634Y-14686484D01*
X11273634Y-14686484D02*
X11292682Y-14686484D01*
X11511730Y-14553150D02*
X11511730Y-14753150D01*
X11511730Y-14562674D02*
X11530777Y-14553150D01*
X11530777Y-14553150D02*
X11568873Y-14553150D01*
X11568873Y-14553150D02*
X11587920Y-14562674D01*
X11587920Y-14562674D02*
X11597444Y-14572198D01*
X11597444Y-14572198D02*
X11606968Y-14591246D01*
X11606968Y-14591246D02*
X11606968Y-14648388D01*
X11606968Y-14648388D02*
X11597444Y-14667436D01*
X11597444Y-14667436D02*
X11587920Y-14676960D01*
X11587920Y-14676960D02*
X11568873Y-14686484D01*
X11568873Y-14686484D02*
X11530777Y-14686484D01*
X11530777Y-14686484D02*
X11511730Y-14676960D01*
X11721253Y-14686484D02*
X11702206Y-14676960D01*
X11702206Y-14676960D02*
X11692682Y-14657912D01*
X11692682Y-14657912D02*
X11692682Y-14486484D01*
X11883158Y-14686484D02*
X11883158Y-14581722D01*
X11883158Y-14581722D02*
X11873634Y-14562674D01*
X11873634Y-14562674D02*
X11854587Y-14553150D01*
X11854587Y-14553150D02*
X11816492Y-14553150D01*
X11816492Y-14553150D02*
X11797444Y-14562674D01*
X11883158Y-14676960D02*
X11864111Y-14686484D01*
X11864111Y-14686484D02*
X11816492Y-14686484D01*
X11816492Y-14686484D02*
X11797444Y-14676960D01*
X11797444Y-14676960D02*
X11787920Y-14657912D01*
X11787920Y-14657912D02*
X11787920Y-14638865D01*
X11787920Y-14638865D02*
X11797444Y-14619817D01*
X11797444Y-14619817D02*
X11816492Y-14610293D01*
X11816492Y-14610293D02*
X11864111Y-14610293D01*
X11864111Y-14610293D02*
X11883158Y-14600769D01*
X11949825Y-14553150D02*
X12026015Y-14553150D01*
X11978396Y-14486484D02*
X11978396Y-14657912D01*
X11978396Y-14657912D02*
X11987920Y-14676960D01*
X11987920Y-14676960D02*
X12006968Y-14686484D01*
X12006968Y-14686484D02*
X12026015Y-14686484D01*
X12168873Y-14676960D02*
X12149825Y-14686484D01*
X12149825Y-14686484D02*
X12111730Y-14686484D01*
X12111730Y-14686484D02*
X12092682Y-14676960D01*
X12092682Y-14676960D02*
X12083158Y-14657912D01*
X12083158Y-14657912D02*
X12083158Y-14581722D01*
X12083158Y-14581722D02*
X12092682Y-14562674D01*
X12092682Y-14562674D02*
X12111730Y-14553150D01*
X12111730Y-14553150D02*
X12149825Y-14553150D01*
X12149825Y-14553150D02*
X12168873Y-14562674D01*
X12168873Y-14562674D02*
X12178396Y-14581722D01*
X12178396Y-14581722D02*
X12178396Y-14600769D01*
X12178396Y-14600769D02*
X12083158Y-14619817D01*
X12349825Y-14686484D02*
X12349825Y-14486484D01*
X12349825Y-14676960D02*
X12330777Y-14686484D01*
X12330777Y-14686484D02*
X12292682Y-14686484D01*
X12292682Y-14686484D02*
X12273634Y-14676960D01*
X12273634Y-14676960D02*
X12264111Y-14667436D01*
X12264111Y-14667436D02*
X12254587Y-14648388D01*
X12254587Y-14648388D02*
X12254587Y-14591246D01*
X12254587Y-14591246D02*
X12264111Y-14572198D01*
X12264111Y-14572198D02*
X12273634Y-14562674D01*
X12273634Y-14562674D02*
X12292682Y-14553150D01*
X12292682Y-14553150D02*
X12330777Y-14553150D01*
X12330777Y-14553150D02*
X12349825Y-14562674D01*
X12426015Y-14762674D02*
X12435539Y-14753150D01*
X12435539Y-14753150D02*
X12454587Y-14724579D01*
X12454587Y-14724579D02*
X12464111Y-14705531D01*
X12464111Y-14705531D02*
X12473634Y-14676960D01*
X12473634Y-14676960D02*
X12483158Y-14629341D01*
X12483158Y-14629341D02*
X12483158Y-14591246D01*
X12483158Y-14591246D02*
X12473634Y-14543627D01*
X12473634Y-14543627D02*
X12464111Y-14515055D01*
X12464111Y-14515055D02*
X12454587Y-14496008D01*
X12454587Y-14496008D02*
X12435539Y-14467436D01*
X12435539Y-14467436D02*
X12426015Y-14457912D01*
M02*
