G04 #@! TF.GenerationSoftware,KiCad,Pcbnew,8.0.7*
G04 #@! TF.CreationDate,2025-03-14T10:19:42+01:00*
G04 #@! TF.ProjectId,MISRC_v2.5,4d495352-435f-4763-922e-352e6b696361,3.0*
G04 #@! TF.SameCoordinates,Original*
G04 #@! TF.FileFunction,Soldermask,Top*
G04 #@! TF.FilePolarity,Negative*
%FSLAX46Y46*%
G04 Gerber Fmt 4.6, Leading zero omitted, Abs format (unit mm)*
G04 Created by KiCad (PCBNEW 8.0.7) date 2025-03-14 10:19:42*
%MOMM*%
%LPD*%
G01*
G04 APERTURE LIST*
G04 Aperture macros list*
%AMRoundRect*
0 Rectangle with rounded corners*
0 $1 Rounding radius*
0 $2 $3 $4 $5 $6 $7 $8 $9 X,Y pos of 4 corners*
0 Add a 4 corners polygon primitive as box body*
4,1,4,$2,$3,$4,$5,$6,$7,$8,$9,$2,$3,0*
0 Add four circle primitives for the rounded corners*
1,1,$1+$1,$2,$3*
1,1,$1+$1,$4,$5*
1,1,$1+$1,$6,$7*
1,1,$1+$1,$8,$9*
0 Add four rect primitives between the rounded corners*
20,1,$1+$1,$2,$3,$4,$5,0*
20,1,$1+$1,$4,$5,$6,$7,0*
20,1,$1+$1,$6,$7,$8,$9,0*
20,1,$1+$1,$8,$9,$2,$3,0*%
G04 Aperture macros list end*
%ADD10R,4.300000X2.150000*%
%ADD11RoundRect,0.225000X-0.250000X0.225000X-0.250000X-0.225000X0.250000X-0.225000X0.250000X0.225000X0*%
%ADD12RoundRect,0.200000X-0.200000X-0.275000X0.200000X-0.275000X0.200000X0.275000X-0.200000X0.275000X0*%
%ADD13R,2.440000X1.120000*%
%ADD14C,2.050000*%
%ADD15C,2.250000*%
%ADD16C,3.200000*%
%ADD17RoundRect,0.200000X-0.275000X0.200000X-0.275000X-0.200000X0.275000X-0.200000X0.275000X0.200000X0*%
%ADD18RoundRect,0.150000X0.587500X0.150000X-0.587500X0.150000X-0.587500X-0.150000X0.587500X-0.150000X0*%
%ADD19RoundRect,0.250000X-0.325000X-0.450000X0.325000X-0.450000X0.325000X0.450000X-0.325000X0.450000X0*%
%ADD20RoundRect,0.250000X-0.325000X-1.100000X0.325000X-1.100000X0.325000X1.100000X-0.325000X1.100000X0*%
%ADD21RoundRect,0.200000X0.275000X-0.200000X0.275000X0.200000X-0.275000X0.200000X-0.275000X-0.200000X0*%
%ADD22RoundRect,0.200000X0.200000X0.275000X-0.200000X0.275000X-0.200000X-0.275000X0.200000X-0.275000X0*%
%ADD23RoundRect,0.100000X-0.637500X-0.100000X0.637500X-0.100000X0.637500X0.100000X-0.637500X0.100000X0*%
%ADD24RoundRect,0.225000X-0.225000X-0.250000X0.225000X-0.250000X0.225000X0.250000X-0.225000X0.250000X0*%
%ADD25RoundRect,0.150000X-0.875000X-0.150000X0.875000X-0.150000X0.875000X0.150000X-0.875000X0.150000X0*%
%ADD26C,1.440000*%
%ADD27R,2.150000X4.300000*%
%ADD28R,3.200000X2.000000*%
%ADD29RoundRect,0.225000X0.225000X0.250000X-0.225000X0.250000X-0.225000X-0.250000X0.225000X-0.250000X0*%
%ADD30R,1.120000X2.440000*%
%ADD31R,1.050000X0.650000*%
%ADD32RoundRect,0.225000X0.250000X-0.225000X0.250000X0.225000X-0.250000X0.225000X-0.250000X-0.225000X0*%
%ADD33C,1.950000*%
%ADD34C,5.175000*%
%ADD35C,2.500000*%
%ADD36C,2.400000*%
%ADD37R,1.700000X1.700000*%
%ADD38O,1.700000X1.700000*%
%ADD39RoundRect,0.150000X0.150000X-0.725000X0.150000X0.725000X-0.150000X0.725000X-0.150000X-0.725000X0*%
G04 APERTURE END LIST*
D10*
G04 #@! TO.C,C19*
X182550000Y-78600000D03*
X190950000Y-78600000D03*
G04 #@! TD*
D11*
G04 #@! TO.C,C119*
X111425000Y-119550000D03*
X111425000Y-121100000D03*
G04 #@! TD*
D12*
G04 #@! TO.C,R120*
X106475000Y-119575000D03*
X108125000Y-119575000D03*
G04 #@! TD*
D11*
G04 #@! TO.C,C108*
X109825000Y-113175000D03*
X109825000Y-114725000D03*
G04 #@! TD*
D12*
G04 #@! TO.C,R211*
X100900000Y-75825000D03*
X102550000Y-75825000D03*
G04 #@! TD*
D13*
G04 #@! TO.C,SW103*
X115250000Y-106700000D03*
X115250000Y-104160000D03*
X115250000Y-101620000D03*
X106640000Y-101620000D03*
X106640000Y-104160000D03*
X106640000Y-106700000D03*
G04 #@! TD*
D12*
G04 #@! TO.C,R213*
X100941000Y-72550000D03*
X102591000Y-72550000D03*
G04 #@! TD*
D14*
G04 #@! TO.C,J101/2*
X64395000Y-126425000D03*
D15*
X61855000Y-123885000D03*
X61855000Y-128965000D03*
X66935000Y-123885000D03*
X66935000Y-128965000D03*
G04 #@! TD*
D16*
G04 #@! TO.C,H3*
X202000000Y-135700000D03*
G04 #@! TD*
D17*
G04 #@! TO.C,R101*
X81250000Y-123375000D03*
X81250000Y-125025000D03*
G04 #@! TD*
D18*
G04 #@! TO.C,Q202*
X91250000Y-81575000D03*
X91250000Y-79675000D03*
X89375000Y-80625000D03*
G04 #@! TD*
D19*
G04 #@! TO.C,D2*
X129175000Y-95625000D03*
X131225000Y-95625000D03*
G04 #@! TD*
D12*
G04 #@! TO.C,R116*
X101575000Y-129600000D03*
X103225000Y-129600000D03*
G04 #@! TD*
D20*
G04 #@! TO.C,C101*
X76400000Y-126425000D03*
X79350000Y-126425000D03*
G04 #@! TD*
D17*
G04 #@! TO.C,R209*
X98125000Y-77925000D03*
X98125000Y-79575000D03*
G04 #@! TD*
D21*
G04 #@! TO.C,R203*
X82850000Y-74975000D03*
X82850000Y-73325000D03*
G04 #@! TD*
D22*
G04 #@! TO.C,R208*
X96450000Y-88925000D03*
X94800000Y-88925000D03*
G04 #@! TD*
G04 #@! TO.C,R206*
X96450000Y-87375000D03*
X94800000Y-87375000D03*
G04 #@! TD*
D23*
G04 #@! TO.C,U102*
X114000000Y-113200000D03*
X114000000Y-113850000D03*
X114000000Y-114500000D03*
X114000000Y-115150000D03*
X114000000Y-115800000D03*
X114000000Y-116450000D03*
X114000000Y-117100000D03*
X114000000Y-117750000D03*
X114000000Y-118400000D03*
X114000000Y-119050000D03*
X114000000Y-119700000D03*
X114000000Y-120350000D03*
X114000000Y-121000000D03*
X114000000Y-121650000D03*
X119725000Y-121650000D03*
X119725000Y-121000000D03*
X119725000Y-120350000D03*
X119725000Y-119700000D03*
X119725000Y-119050000D03*
X119725000Y-118400000D03*
X119725000Y-117750000D03*
X119725000Y-117100000D03*
X119725000Y-116450000D03*
X119725000Y-115800000D03*
X119725000Y-115150000D03*
X119725000Y-114500000D03*
X119725000Y-113850000D03*
X119725000Y-113200000D03*
G04 #@! TD*
D12*
G04 #@! TO.C,R210*
X94800000Y-90500000D03*
X96450000Y-90500000D03*
G04 #@! TD*
D24*
G04 #@! TO.C,C106*
X101700000Y-112525000D03*
X103250000Y-112525000D03*
G04 #@! TD*
D25*
G04 #@! TO.C,U5*
X124525000Y-66657000D03*
X124525000Y-67927000D03*
X124525000Y-69197000D03*
X124525000Y-70467000D03*
X124525000Y-71737000D03*
X124525000Y-73007000D03*
X124525000Y-74277000D03*
X124525000Y-75547000D03*
X124525000Y-76817000D03*
X124525000Y-78087000D03*
X133825000Y-78087000D03*
X133825000Y-76817000D03*
X133825000Y-75547000D03*
X133825000Y-74277000D03*
X133825000Y-73007000D03*
X133825000Y-71737000D03*
X133825000Y-70467000D03*
X133825000Y-69197000D03*
X133825000Y-67927000D03*
X133825000Y-66657000D03*
G04 #@! TD*
D24*
G04 #@! TO.C,C206*
X100950000Y-79050000D03*
X102500000Y-79050000D03*
G04 #@! TD*
D12*
G04 #@! TO.C,R215*
X101175000Y-92150000D03*
X102825000Y-92150000D03*
G04 #@! TD*
D25*
G04 #@! TO.C,U4*
X124525000Y-81135000D03*
X124525000Y-82405000D03*
X124525000Y-83675000D03*
X124525000Y-84945000D03*
X124525000Y-86215000D03*
X124525000Y-87485000D03*
X124525000Y-88755000D03*
X124525000Y-90025000D03*
X124525000Y-91295000D03*
X124525000Y-92565000D03*
X133825000Y-92565000D03*
X133825000Y-91295000D03*
X133825000Y-90025000D03*
X133825000Y-88755000D03*
X133825000Y-87485000D03*
X133825000Y-86215000D03*
X133825000Y-84945000D03*
X133825000Y-83675000D03*
X133825000Y-82405000D03*
X133825000Y-81135000D03*
G04 #@! TD*
D26*
G04 #@! TO.C,RV201*
X81540000Y-95715000D03*
X79000000Y-93175000D03*
X81540000Y-90635000D03*
G04 #@! TD*
D27*
G04 #@! TO.C,C17*
X199800000Y-72100000D03*
X199800000Y-80500000D03*
G04 #@! TD*
D12*
G04 #@! TO.C,R122*
X109775000Y-117900000D03*
X111425000Y-117900000D03*
G04 #@! TD*
D28*
G04 #@! TO.C,L1*
X175050000Y-74700000D03*
X175050000Y-82500000D03*
G04 #@! TD*
D13*
G04 #@! TO.C,SW104*
X115271166Y-130351166D03*
X115271166Y-127811166D03*
X115271166Y-125271166D03*
X106661166Y-125271166D03*
X106661166Y-127811166D03*
X106661166Y-130351166D03*
G04 #@! TD*
D10*
G04 #@! TO.C,C11*
X182600000Y-66850000D03*
X191000000Y-66850000D03*
G04 #@! TD*
D29*
G04 #@! TO.C,C31*
X118425000Y-111525000D03*
X116875000Y-111525000D03*
G04 #@! TD*
D18*
G04 #@! TO.C,Q102*
X91250000Y-119725000D03*
X91250000Y-117825000D03*
X89375000Y-118775000D03*
G04 #@! TD*
D22*
G04 #@! TO.C,R2*
X126800000Y-104475000D03*
X125150000Y-104475000D03*
G04 #@! TD*
D14*
G04 #@! TO.C,J201/2*
X64860000Y-72290000D03*
D15*
X62320000Y-69750000D03*
X62320000Y-74830000D03*
X67400000Y-69750000D03*
X67400000Y-74830000D03*
G04 #@! TD*
D11*
G04 #@! TO.C,C208*
X109850000Y-80275000D03*
X109850000Y-81825000D03*
G04 #@! TD*
D25*
G04 #@! TO.C,U2*
X124525000Y-121908000D03*
X124525000Y-123178000D03*
X124525000Y-124448000D03*
X124525000Y-125718000D03*
X124525000Y-126988000D03*
X124525000Y-128258000D03*
X124525000Y-129528000D03*
X124525000Y-130798000D03*
X124525000Y-132068000D03*
X124525000Y-133338000D03*
X133825000Y-133338000D03*
X133825000Y-132068000D03*
X133825000Y-130798000D03*
X133825000Y-129528000D03*
X133825000Y-128258000D03*
X133825000Y-126988000D03*
X133825000Y-125718000D03*
X133825000Y-124448000D03*
X133825000Y-123178000D03*
X133825000Y-121908000D03*
G04 #@! TD*
D12*
G04 #@! TO.C,R125*
X112900000Y-110125000D03*
X114550000Y-110125000D03*
G04 #@! TD*
G04 #@! TO.C,R216*
X101175000Y-96950000D03*
X102825000Y-96950000D03*
G04 #@! TD*
D30*
G04 #@! TO.C,SW201*
X86165000Y-77030000D03*
X88705000Y-77030000D03*
X91245000Y-77030000D03*
X93785000Y-77030000D03*
X93785000Y-68420000D03*
X91245000Y-68420000D03*
X88705000Y-68420000D03*
X86165000Y-68420000D03*
G04 #@! TD*
D16*
G04 #@! TO.C,H2*
X62000000Y-135700000D03*
G04 #@! TD*
D19*
G04 #@! TO.C,D1*
X129132000Y-104475000D03*
X131182000Y-104475000D03*
G04 #@! TD*
D28*
G04 #@! TO.C,L2*
X175050000Y-70750000D03*
X175050000Y-62950000D03*
G04 #@! TD*
D17*
G04 #@! TO.C,R102*
X82800000Y-123375000D03*
X82800000Y-125025000D03*
G04 #@! TD*
G04 #@! TO.C,R307*
X109850000Y-77100000D03*
X109850000Y-78750000D03*
G04 #@! TD*
D20*
G04 #@! TO.C,C201*
X76400000Y-72275000D03*
X79350000Y-72275000D03*
G04 #@! TD*
D17*
G04 #@! TO.C,R309*
X111475000Y-77100000D03*
X111475000Y-78750000D03*
G04 #@! TD*
D12*
G04 #@! TO.C,R115*
X101550000Y-124775000D03*
X103200000Y-124775000D03*
G04 #@! TD*
G04 #@! TO.C,R111*
X101650000Y-109200000D03*
X103300000Y-109200000D03*
G04 #@! TD*
D24*
G04 #@! TO.C,C29*
X79825000Y-101800000D03*
X81375000Y-101800000D03*
G04 #@! TD*
D12*
G04 #@! TO.C,R220*
X106575000Y-86550000D03*
X108225000Y-86550000D03*
G04 #@! TD*
D14*
G04 #@! TO.C,J4*
X200200000Y-125900000D03*
D15*
X197660000Y-123360000D03*
X197660000Y-128440000D03*
X202740000Y-123360000D03*
X202740000Y-128440000D03*
G04 #@! TD*
D11*
G04 #@! TO.C,C109*
X109825000Y-119550000D03*
X109825000Y-121100000D03*
G04 #@! TD*
G04 #@! TO.C,C209*
X109850000Y-86525000D03*
X109850000Y-88075000D03*
G04 #@! TD*
D12*
G04 #@! TO.C,R212*
X100925000Y-74175000D03*
X102575000Y-74175000D03*
G04 #@! TD*
G04 #@! TO.C,R113*
X101650000Y-105850000D03*
X103300000Y-105850000D03*
G04 #@! TD*
D22*
G04 #@! TO.C,R207*
X96450000Y-85800000D03*
X94800000Y-85800000D03*
G04 #@! TD*
D12*
G04 #@! TO.C,R222*
X109800000Y-84975000D03*
X111450000Y-84975000D03*
G04 #@! TD*
D10*
G04 #@! TO.C,C10*
X153000000Y-78600000D03*
X144600000Y-78600000D03*
G04 #@! TD*
D25*
G04 #@! TO.C,U3*
X124525000Y-107430000D03*
X124525000Y-108700000D03*
X124525000Y-109970000D03*
X124525000Y-111240000D03*
X124525000Y-112510000D03*
X124525000Y-113780000D03*
X124525000Y-115050000D03*
X124525000Y-116320000D03*
X124525000Y-117590000D03*
X124525000Y-118860000D03*
X133825000Y-118860000D03*
X133825000Y-117590000D03*
X133825000Y-116320000D03*
X133825000Y-115050000D03*
X133825000Y-113780000D03*
X133825000Y-112510000D03*
X133825000Y-111240000D03*
X133825000Y-109970000D03*
X133825000Y-108700000D03*
X133825000Y-107430000D03*
G04 #@! TD*
D12*
G04 #@! TO.C,R225*
X113150000Y-76900000D03*
X114800000Y-76900000D03*
G04 #@! TD*
D13*
G04 #@! TO.C,SW203*
X115250000Y-73330000D03*
X115250000Y-70790000D03*
X115250000Y-68250000D03*
X106640000Y-68250000D03*
X106640000Y-70790000D03*
X106640000Y-73330000D03*
G04 #@! TD*
D29*
G04 #@! TO.C,C128*
X81360000Y-105950000D03*
X79810000Y-105950000D03*
G04 #@! TD*
D24*
G04 #@! TO.C,C107*
X101604000Y-123150000D03*
X103154000Y-123150000D03*
G04 #@! TD*
D17*
G04 #@! TO.C,R308*
X111400000Y-110050000D03*
X111400000Y-111700000D03*
G04 #@! TD*
G04 #@! TO.C,R306*
X109825000Y-110050000D03*
X109825000Y-111700000D03*
G04 #@! TD*
D12*
G04 #@! TO.C,R218*
X101175000Y-93750000D03*
X102825000Y-93750000D03*
G04 #@! TD*
G04 #@! TO.C,R119*
X106575000Y-114700000D03*
X108225000Y-114700000D03*
G04 #@! TD*
D10*
G04 #@! TO.C,C6*
X167450000Y-78600000D03*
X159050000Y-78600000D03*
G04 #@! TD*
G04 #@! TO.C,C18*
X167450000Y-66850000D03*
X159050000Y-66850000D03*
G04 #@! TD*
D12*
G04 #@! TO.C,R219*
X106725000Y-81800000D03*
X108375000Y-81800000D03*
G04 #@! TD*
D31*
G04 #@! TO.C,SW1*
X126700000Y-98825000D03*
X130850000Y-98825000D03*
X126700000Y-100975000D03*
X130850000Y-100975000D03*
G04 #@! TD*
D16*
G04 #@! TO.C,H1*
X62000000Y-63200000D03*
G04 #@! TD*
D32*
G04 #@! TO.C,C2*
X119225000Y-77450000D03*
X119225000Y-75900000D03*
G04 #@! TD*
D18*
G04 #@! TO.C,Q101*
X95375000Y-119725000D03*
X95375000Y-117825000D03*
X93500000Y-118775000D03*
G04 #@! TD*
D32*
G04 #@! TO.C,C105*
X98125000Y-123975000D03*
X98125000Y-122425000D03*
G04 #@! TD*
D29*
G04 #@! TO.C,C228*
X81275000Y-86175000D03*
X79725000Y-86175000D03*
G04 #@! TD*
D17*
G04 #@! TO.C,R201*
X81250000Y-69500000D03*
X81250000Y-71150000D03*
G04 #@! TD*
D12*
G04 #@! TO.C,R217*
X101175000Y-95350000D03*
X102825000Y-95350000D03*
G04 #@! TD*
D11*
G04 #@! TO.C,C118*
X111400000Y-113175000D03*
X111400000Y-114725000D03*
G04 #@! TD*
D32*
G04 #@! TO.C,C4*
X136150000Y-121900000D03*
X136150000Y-120350000D03*
G04 #@! TD*
D33*
G04 #@! TO.C,J202*
X63650000Y-90550000D03*
X68150000Y-86550000D03*
X66900000Y-94550000D03*
X63650000Y-108550000D03*
X68150000Y-104550000D03*
X66900000Y-112550000D03*
D34*
X64150000Y-83300000D03*
X64150000Y-115800000D03*
G04 #@! TD*
D12*
G04 #@! TO.C,R118*
X101550000Y-126375000D03*
X103200000Y-126375000D03*
G04 #@! TD*
G04 #@! TO.C,R221*
X109800000Y-83375000D03*
X111450000Y-83375000D03*
G04 #@! TD*
D10*
G04 #@! TO.C,C16*
X153050000Y-66850000D03*
X144650000Y-66850000D03*
G04 #@! TD*
D22*
G04 #@! TO.C,R228*
X81325000Y-87850000D03*
X79675000Y-87850000D03*
G04 #@! TD*
D35*
G04 #@! TO.C,J101*
X64375000Y-126475000D03*
D36*
X60935000Y-123195000D03*
X67535000Y-123185000D03*
X60975000Y-129875000D03*
X67585000Y-129765000D03*
G04 #@! TD*
D30*
G04 #@! TO.C,SW101*
X86215000Y-131205000D03*
X88755000Y-131205000D03*
X91295000Y-131205000D03*
X93835000Y-131205000D03*
X93835000Y-122595000D03*
X91295000Y-122595000D03*
X88755000Y-122595000D03*
X86215000Y-122595000D03*
G04 #@! TD*
D21*
G04 #@! TO.C,R109*
X98125000Y-120950000D03*
X98125000Y-119300000D03*
G04 #@! TD*
D37*
G04 #@! TO.C,J3*
X200775000Y-99320000D03*
D38*
X200775000Y-101860000D03*
X200775000Y-104400000D03*
X200775000Y-106940000D03*
X200775000Y-109480000D03*
X200775000Y-112020000D03*
X200775000Y-114560000D03*
X200775000Y-117100000D03*
G04 #@! TD*
D29*
G04 #@! TO.C,C227*
X81275000Y-84500000D03*
X79725000Y-84500000D03*
G04 #@! TD*
D30*
G04 #@! TO.C,SW202*
X86347000Y-93218000D03*
X88887000Y-93218000D03*
X91427000Y-93218000D03*
X91427000Y-84608000D03*
X88887000Y-84608000D03*
X86347000Y-84608000D03*
G04 #@! TD*
D37*
G04 #@! TO.C,J1*
X189653000Y-87875000D03*
D38*
X192193000Y-87875000D03*
X189653000Y-90415000D03*
X192193000Y-90415000D03*
X192193000Y-92955000D03*
X189653000Y-95495000D03*
X192193000Y-95495000D03*
X189653000Y-98035000D03*
X192193000Y-98035000D03*
X189653000Y-100575000D03*
X192193000Y-100575000D03*
X189653000Y-103115000D03*
X192193000Y-103115000D03*
X189653000Y-105655000D03*
X192193000Y-105655000D03*
X189653000Y-108195000D03*
X192193000Y-108195000D03*
X189653000Y-110735000D03*
X192193000Y-110735000D03*
X189653000Y-113275000D03*
X192193000Y-113275000D03*
X189653000Y-115815000D03*
X192193000Y-115815000D03*
X189653000Y-118355000D03*
X192193000Y-118355000D03*
X189653000Y-120895000D03*
X192193000Y-120895000D03*
X189653000Y-123435000D03*
X192193000Y-123435000D03*
X189653000Y-125975000D03*
X192193000Y-125975000D03*
X189653000Y-128515000D03*
X192193000Y-128515000D03*
X189653000Y-131055000D03*
X192193000Y-131055000D03*
X189653000Y-133595000D03*
X192193000Y-133595000D03*
X189653000Y-136135000D03*
X192193000Y-136135000D03*
G04 #@! TD*
D12*
G04 #@! TO.C,R112*
X101650000Y-107525000D03*
X103300000Y-107525000D03*
G04 #@! TD*
D21*
G04 #@! TO.C,R103*
X82800000Y-129200000D03*
X82800000Y-127550000D03*
G04 #@! TD*
D39*
G04 #@! TO.C,U201*
X100965000Y-86903000D03*
X102235000Y-86903000D03*
X103505000Y-86903000D03*
X104775000Y-86903000D03*
X104775000Y-81753000D03*
X103505000Y-81753000D03*
X102235000Y-81753000D03*
X100965000Y-81753000D03*
G04 #@! TD*
D18*
G04 #@! TO.C,Q201*
X95425000Y-81575000D03*
X95425000Y-79675000D03*
X93550000Y-80625000D03*
G04 #@! TD*
D11*
G04 #@! TO.C,C5*
X136575000Y-80950000D03*
X136575000Y-82500000D03*
G04 #@! TD*
G04 #@! TO.C,C219*
X111450000Y-86500000D03*
X111450000Y-88050000D03*
G04 #@! TD*
D16*
G04 #@! TO.C,H4*
X202000000Y-63200000D03*
G04 #@! TD*
D23*
G04 #@! TO.C,U202*
X114000000Y-79200000D03*
X114000000Y-79850000D03*
X114000000Y-80500000D03*
X114000000Y-81150000D03*
X114000000Y-81800000D03*
X114000000Y-82450000D03*
X114000000Y-83100000D03*
X114000000Y-83750000D03*
X114000000Y-84400000D03*
X114000000Y-85050000D03*
X114000000Y-85700000D03*
X114000000Y-86350000D03*
X114000000Y-87000000D03*
X114000000Y-87650000D03*
X119725000Y-87650000D03*
X119725000Y-87000000D03*
X119725000Y-86350000D03*
X119725000Y-85700000D03*
X119725000Y-85050000D03*
X119725000Y-84400000D03*
X119725000Y-83750000D03*
X119725000Y-83100000D03*
X119725000Y-82450000D03*
X119725000Y-81800000D03*
X119725000Y-81150000D03*
X119725000Y-80500000D03*
X119725000Y-79850000D03*
X119725000Y-79200000D03*
G04 #@! TD*
D17*
G04 #@! TO.C,R202*
X82850000Y-69500000D03*
X82850000Y-71150000D03*
G04 #@! TD*
D12*
G04 #@! TO.C,R121*
X109775000Y-116325000D03*
X111425000Y-116325000D03*
G04 #@! TD*
G04 #@! TO.C,R214*
X100900000Y-77425000D03*
X102550000Y-77425000D03*
G04 #@! TD*
D32*
G04 #@! TO.C,C3*
X136225000Y-107425000D03*
X136225000Y-105875000D03*
G04 #@! TD*
D39*
G04 #@! TO.C,U101*
X100970000Y-119950000D03*
X102240000Y-119950000D03*
X103510000Y-119950000D03*
X104780000Y-119950000D03*
X104780000Y-114800000D03*
X103510000Y-114800000D03*
X102240000Y-114800000D03*
X100970000Y-114800000D03*
G04 #@! TD*
D13*
G04 #@! TO.C,SW204*
X115250000Y-96330000D03*
X115250000Y-93790000D03*
X115250000Y-91250000D03*
X106640000Y-91250000D03*
X106640000Y-93790000D03*
X106640000Y-96330000D03*
G04 #@! TD*
D26*
G04 #@! TO.C,RV101*
X81540000Y-116600000D03*
X79000000Y-114060000D03*
X81540000Y-111520000D03*
G04 #@! TD*
D30*
G04 #@! TO.C,SW102*
X86347000Y-115050000D03*
X88887000Y-115050000D03*
X91427000Y-115050000D03*
X91427000Y-106440000D03*
X88887000Y-106440000D03*
X86347000Y-106440000D03*
G04 #@! TD*
D22*
G04 #@! TO.C,R3*
X126843000Y-95625000D03*
X125193000Y-95625000D03*
G04 #@! TD*
G04 #@! TO.C,R127*
X81410000Y-109300000D03*
X79760000Y-109300000D03*
G04 #@! TD*
D37*
G04 #@! TO.C,J2*
X147650000Y-87875000D03*
D38*
X150190000Y-87875000D03*
X147650000Y-90415000D03*
X150190000Y-90415000D03*
X150190000Y-92955000D03*
X147650000Y-95495000D03*
X150190000Y-95495000D03*
X147650000Y-98035000D03*
X150190000Y-98035000D03*
X147650000Y-100575000D03*
X150190000Y-100575000D03*
X147650000Y-103115000D03*
X150190000Y-103115000D03*
X147650000Y-105655000D03*
X150190000Y-105655000D03*
X147650000Y-108195000D03*
X150190000Y-108195000D03*
X147650000Y-110735000D03*
X150190000Y-110735000D03*
X147650000Y-113275000D03*
X150190000Y-113275000D03*
X147650000Y-115815000D03*
X150190000Y-115815000D03*
X147650000Y-118355000D03*
X150190000Y-118355000D03*
X147650000Y-120895000D03*
X150190000Y-120895000D03*
X147650000Y-123435000D03*
X150190000Y-123435000D03*
X147650000Y-125975000D03*
X150190000Y-125975000D03*
X147650000Y-128515000D03*
X150190000Y-128515000D03*
X147650000Y-131055000D03*
X150190000Y-131055000D03*
X147650000Y-133595000D03*
X150190000Y-133595000D03*
X147650000Y-136135000D03*
X150190000Y-136135000D03*
G04 #@! TD*
D35*
G04 #@! TO.C,J201*
X64840000Y-72310000D03*
D36*
X61400000Y-69030000D03*
X68000000Y-69020000D03*
X61440000Y-75710000D03*
X68050000Y-75600000D03*
G04 #@! TD*
D12*
G04 #@! TO.C,R117*
X101550000Y-127975000D03*
X103200000Y-127975000D03*
G04 #@! TD*
D29*
G04 #@! TO.C,C127*
X81360000Y-107625000D03*
X79810000Y-107625000D03*
G04 #@! TD*
D11*
G04 #@! TO.C,C1*
X136750000Y-66675000D03*
X136750000Y-68225000D03*
G04 #@! TD*
D24*
G04 #@! TO.C,C207*
X101225000Y-90500000D03*
X102775000Y-90500000D03*
G04 #@! TD*
D29*
G04 #@! TO.C,C30*
X81360000Y-103375000D03*
X79810000Y-103375000D03*
G04 #@! TD*
D11*
G04 #@! TO.C,C205*
X98125000Y-74925000D03*
X98125000Y-76475000D03*
G04 #@! TD*
G04 #@! TO.C,C218*
X111475000Y-80275000D03*
X111475000Y-81825000D03*
G04 #@! TD*
D12*
G04 #@! TO.C,R114*
X101650000Y-110850000D03*
X103300000Y-110850000D03*
G04 #@! TD*
M02*
