G04 #@! TF.GenerationSoftware,KiCad,Pcbnew,8.0.7*
G04 #@! TF.CreationDate,2025-03-14T10:19:42+01:00*
G04 #@! TF.ProjectId,MISRC_v2.5,4d495352-435f-4763-922e-352e6b696361,3.0*
G04 #@! TF.SameCoordinates,Original*
G04 #@! TF.FileFunction,Paste,Bot*
G04 #@! TF.FilePolarity,Positive*
%FSLAX46Y46*%
G04 Gerber Fmt 4.6, Leading zero omitted, Abs format (unit mm)*
G04 Created by KiCad (PCBNEW 8.0.7) date 2025-03-14 10:19:42*
%MOMM*%
%LPD*%
G01*
G04 APERTURE LIST*
G04 Aperture macros list*
%AMRoundRect*
0 Rectangle with rounded corners*
0 $1 Rounding radius*
0 $2 $3 $4 $5 $6 $7 $8 $9 X,Y pos of 4 corners*
0 Add a 4 corners polygon primitive as box body*
4,1,4,$2,$3,$4,$5,$6,$7,$8,$9,$2,$3,0*
0 Add four circle primitives for the rounded corners*
1,1,$1+$1,$2,$3*
1,1,$1+$1,$4,$5*
1,1,$1+$1,$6,$7*
1,1,$1+$1,$8,$9*
0 Add four rect primitives between the rounded corners*
20,1,$1+$1,$2,$3,$4,$5,0*
20,1,$1+$1,$4,$5,$6,$7,0*
20,1,$1+$1,$6,$7,$8,$9,0*
20,1,$1+$1,$8,$9,$2,$3,0*%
G04 Aperture macros list end*
%ADD10RoundRect,0.225000X-0.225000X-0.250000X0.225000X-0.250000X0.225000X0.250000X-0.225000X0.250000X0*%
%ADD11RoundRect,0.225000X0.225000X0.250000X-0.225000X0.250000X-0.225000X-0.250000X0.225000X-0.250000X0*%
%ADD12RoundRect,0.225000X-0.250000X0.225000X-0.250000X-0.225000X0.250000X-0.225000X0.250000X0.225000X0*%
%ADD13RoundRect,0.225000X0.250000X-0.225000X0.250000X0.225000X-0.250000X0.225000X-0.250000X-0.225000X0*%
%ADD14RoundRect,0.200000X0.200000X0.275000X-0.200000X0.275000X-0.200000X-0.275000X0.200000X-0.275000X0*%
%ADD15RoundRect,0.200000X-0.200000X-0.275000X0.200000X-0.275000X0.200000X0.275000X-0.200000X0.275000X0*%
%ADD16R,1.800000X2.000000*%
%ADD17RoundRect,0.200000X-0.275000X0.200000X-0.275000X-0.200000X0.275000X-0.200000X0.275000X0.200000X0*%
%ADD18RoundRect,0.375000X0.625000X0.375000X-0.625000X0.375000X-0.625000X-0.375000X0.625000X-0.375000X0*%
%ADD19RoundRect,0.500000X0.500000X1.400000X-0.500000X1.400000X-0.500000X-1.400000X0.500000X-1.400000X0*%
%ADD20RoundRect,0.230000X0.375000X-0.230000X0.375000X0.230000X-0.375000X0.230000X-0.375000X-0.230000X0*%
%ADD21RoundRect,0.150000X0.150000X-0.825000X0.150000X0.825000X-0.150000X0.825000X-0.150000X-0.825000X0*%
%ADD22RoundRect,0.200000X0.275000X-0.200000X0.275000X0.200000X-0.275000X0.200000X-0.275000X-0.200000X0*%
%ADD23RoundRect,0.150000X0.150000X-0.512500X0.150000X0.512500X-0.150000X0.512500X-0.150000X-0.512500X0*%
%ADD24R,2.440000X1.120000*%
%ADD25RoundRect,0.150000X-0.725000X-0.150000X0.725000X-0.150000X0.725000X0.150000X-0.725000X0.150000X0*%
%ADD26RoundRect,0.028800X-0.211200X0.921200X-0.211200X-0.921200X0.211200X-0.921200X0.211200X0.921200X0*%
G04 APERTURE END LIST*
D10*
G04 #@! TO.C,C122*
X102075000Y-114700000D03*
X103625000Y-114700000D03*
G04 #@! TD*
D11*
G04 #@! TO.C,C240*
X90925000Y-110125000D03*
X89375000Y-110125000D03*
G04 #@! TD*
D12*
G04 #@! TO.C,C226*
X119225000Y-75900000D03*
X119225000Y-77450000D03*
G04 #@! TD*
D13*
G04 #@! TO.C,C319*
X110775000Y-114350000D03*
X110775000Y-112800000D03*
G04 #@! TD*
G04 #@! TO.C,C221*
X117600000Y-82425000D03*
X117600000Y-80875000D03*
G04 #@! TD*
D14*
G04 #@! TO.C,R235*
X83425000Y-88450000D03*
X81775000Y-88450000D03*
G04 #@! TD*
D10*
G04 #@! TO.C,C20*
X163230000Y-75675000D03*
X164780000Y-75675000D03*
G04 #@! TD*
D11*
G04 #@! TO.C,C230*
X86600000Y-82890000D03*
X85050000Y-82890000D03*
G04 #@! TD*
G04 #@! TO.C,C8*
X174875000Y-68316000D03*
X173325000Y-68316000D03*
G04 #@! TD*
D10*
G04 #@! TO.C,C231*
X81825000Y-85250000D03*
X83375000Y-85250000D03*
G04 #@! TD*
D15*
G04 #@! TO.C,R204*
X109175000Y-80550000D03*
X110825000Y-80550000D03*
G04 #@! TD*
D16*
G04 #@! TO.C,Y1*
X111465000Y-108700000D03*
X106385000Y-108700000D03*
X106385000Y-104500000D03*
X111465000Y-104500000D03*
G04 #@! TD*
D13*
G04 #@! TO.C,C22*
X115800000Y-105603000D03*
X115800000Y-104053000D03*
G04 #@! TD*
D15*
G04 #@! TO.C,R110*
X95300000Y-113825000D03*
X96950000Y-113825000D03*
G04 #@! TD*
D10*
G04 #@! TO.C,C21*
X198025000Y-76600000D03*
X199575000Y-76600000D03*
G04 #@! TD*
D15*
G04 #@! TO.C,R5*
X197975000Y-74350000D03*
X199625000Y-74350000D03*
G04 #@! TD*
D14*
G04 #@! TO.C,R126*
X117475000Y-108425000D03*
X115825000Y-108425000D03*
G04 #@! TD*
D12*
G04 #@! TO.C,C114*
X117525000Y-111650000D03*
X117525000Y-113200000D03*
G04 #@! TD*
D13*
G04 #@! TO.C,C216*
X107475000Y-78975000D03*
X107475000Y-77425000D03*
G04 #@! TD*
D14*
G04 #@! TO.C,R226*
X117475000Y-74550000D03*
X115825000Y-74550000D03*
G04 #@! TD*
D12*
G04 #@! TO.C,C225*
X115675000Y-83975000D03*
X115675000Y-85525000D03*
G04 #@! TD*
D11*
G04 #@! TO.C,C234*
X86600000Y-96700000D03*
X85050000Y-96700000D03*
G04 #@! TD*
D17*
G04 #@! TO.C,R240*
X92175000Y-96675000D03*
X92175000Y-98325000D03*
G04 #@! TD*
D12*
G04 #@! TO.C,C213*
X115700000Y-77775000D03*
X115700000Y-79325000D03*
G04 #@! TD*
D10*
G04 #@! TO.C,C7*
X176150000Y-76745000D03*
X177700000Y-76745000D03*
G04 #@! TD*
D18*
G04 #@! TO.C,Q2*
X194450000Y-72050000D03*
X194450000Y-74350000D03*
D19*
X188150000Y-74350000D03*
D18*
X194450000Y-76650000D03*
G04 #@! TD*
D10*
G04 #@! TO.C,C15*
X198025000Y-72070000D03*
X199575000Y-72070000D03*
G04 #@! TD*
D13*
G04 #@! TO.C,C112*
X117550000Y-119475000D03*
X117550000Y-117925000D03*
G04 #@! TD*
D17*
G04 #@! TO.C,R241*
X90650000Y-96675000D03*
X90650000Y-98325000D03*
G04 #@! TD*
D14*
G04 #@! TO.C,R108*
X96950000Y-112125000D03*
X95300000Y-112125000D03*
G04 #@! TD*
D11*
G04 #@! TO.C,C223*
X103550000Y-86900000D03*
X102000000Y-86900000D03*
G04 #@! TD*
D12*
G04 #@! TO.C,C214*
X117625000Y-77750000D03*
X117625000Y-79300000D03*
G04 #@! TD*
D20*
G04 #@! TO.C,U7*
X116313000Y-99872000D03*
X117813000Y-99872000D03*
X116313000Y-98732000D03*
X117813000Y-98732000D03*
D21*
X118968000Y-101777000D03*
X117698000Y-101777000D03*
X116428000Y-101777000D03*
X115158000Y-101777000D03*
X115158000Y-96827000D03*
X116428000Y-96827000D03*
X117698000Y-96827000D03*
X118968000Y-96827000D03*
G04 #@! TD*
D10*
G04 #@! TO.C,C232*
X81825000Y-86850000D03*
X83375000Y-86850000D03*
G04 #@! TD*
D13*
G04 #@! TO.C,C217*
X115700000Y-82425000D03*
X115700000Y-80875000D03*
G04 #@! TD*
D14*
G04 #@! TO.C,R106*
X96950000Y-110350000D03*
X95300000Y-110350000D03*
G04 #@! TD*
D10*
G04 #@! TO.C,C14*
X163225000Y-71100000D03*
X164775000Y-71100000D03*
G04 #@! TD*
D15*
G04 #@! TO.C,R238*
X78700000Y-100628141D03*
X80350000Y-100628141D03*
G04 #@! TD*
D13*
G04 #@! TO.C,C115*
X107475000Y-114350000D03*
X107475000Y-112800000D03*
G04 #@! TD*
D22*
G04 #@! TO.C,R223*
X112500000Y-81175000D03*
X112500000Y-79525000D03*
G04 #@! TD*
D11*
G04 #@! TO.C,C235*
X86600000Y-98250000D03*
X85050000Y-98250000D03*
G04 #@! TD*
D10*
G04 #@! TO.C,C238*
X81900000Y-102250000D03*
X83450000Y-102250000D03*
G04 #@! TD*
D15*
G04 #@! TO.C,R233*
X78700000Y-86850000D03*
X80350000Y-86850000D03*
G04 #@! TD*
G04 #@! TO.C,R232*
X78700000Y-85250000D03*
X80350000Y-85250000D03*
G04 #@! TD*
D13*
G04 #@! TO.C,C111*
X119175000Y-119475000D03*
X119175000Y-117925000D03*
G04 #@! TD*
D15*
G04 #@! TO.C,R311*
X109175000Y-88650000D03*
X110825000Y-88650000D03*
G04 #@! TD*
D13*
G04 #@! TO.C,C233*
X89125000Y-83100000D03*
X89125000Y-81550000D03*
G04 #@! TD*
D14*
G04 #@! TO.C,R224*
X117450000Y-76150000D03*
X115800000Y-76150000D03*
G04 #@! TD*
G04 #@! TO.C,R237*
X83500000Y-103900000D03*
X81850000Y-103900000D03*
G04 #@! TD*
D12*
G04 #@! TO.C,C224*
X115675000Y-87125000D03*
X115675000Y-88675000D03*
G04 #@! TD*
G04 #@! TO.C,C125*
X115750000Y-117900000D03*
X115750000Y-119450000D03*
G04 #@! TD*
G04 #@! TO.C,C241*
X114275000Y-104050000D03*
X114275000Y-105600000D03*
G04 #@! TD*
D14*
G04 #@! TO.C,R314*
X97015000Y-89360000D03*
X95365000Y-89360000D03*
G04 #@! TD*
G04 #@! TO.C,R312*
X97015000Y-102770000D03*
X95365000Y-102770000D03*
G04 #@! TD*
D11*
G04 #@! TO.C,C204*
X110778000Y-85500000D03*
X109228000Y-85500000D03*
G04 #@! TD*
D18*
G04 #@! TO.C,Q1*
X160750000Y-71100000D03*
X160750000Y-73400000D03*
D19*
X154450000Y-73400000D03*
D18*
X160750000Y-75700000D03*
G04 #@! TD*
D13*
G04 #@! TO.C,C116*
X109125000Y-114350000D03*
X109125000Y-112800000D03*
G04 #@! TD*
D11*
G04 #@! TO.C,C236*
X90925000Y-94750000D03*
X89375000Y-94750000D03*
G04 #@! TD*
D13*
G04 #@! TO.C,C211*
X119275000Y-85500000D03*
X119275000Y-83950000D03*
G04 #@! TD*
D15*
G04 #@! TO.C,R310*
X109200000Y-122425000D03*
X110850000Y-122425000D03*
G04 #@! TD*
D12*
G04 #@! TO.C,C113*
X115750000Y-111650000D03*
X115750000Y-113200000D03*
G04 #@! TD*
D17*
G04 #@! TO.C,R229*
X90675000Y-81500000D03*
X90675000Y-83150000D03*
G04 #@! TD*
D15*
G04 #@! TO.C,R239*
X78700000Y-102250000D03*
X80350000Y-102250000D03*
G04 #@! TD*
D14*
G04 #@! TO.C,R124*
X117467272Y-110000000D03*
X115817272Y-110000000D03*
G04 #@! TD*
D17*
G04 #@! TO.C,R227*
X92250000Y-81500000D03*
X92250000Y-83150000D03*
G04 #@! TD*
D13*
G04 #@! TO.C,C12*
X154425000Y-68700000D03*
X154425000Y-67150000D03*
G04 #@! TD*
D12*
G04 #@! TO.C,C126*
X119300000Y-109850000D03*
X119300000Y-111400000D03*
G04 #@! TD*
D15*
G04 #@! TO.C,R104*
X109200000Y-115950000D03*
X110850000Y-115950000D03*
G04 #@! TD*
D14*
G04 #@! TO.C,R107*
X96950000Y-108650000D03*
X95300000Y-108650000D03*
G04 #@! TD*
D13*
G04 #@! TO.C,C320*
X110800000Y-78975000D03*
X110800000Y-77425000D03*
G04 #@! TD*
G04 #@! TO.C,C220*
X112500000Y-84225000D03*
X112500000Y-82675000D03*
G04 #@! TD*
D12*
G04 #@! TO.C,C23*
X117350000Y-92875000D03*
X117350000Y-94425000D03*
G04 #@! TD*
D23*
G04 #@! TO.C,U6*
X174161000Y-74914500D03*
X173211000Y-74914500D03*
X172261000Y-74914500D03*
X172261000Y-72639500D03*
X174161000Y-72639500D03*
G04 #@! TD*
D11*
G04 #@! TO.C,C27*
X177686000Y-73005500D03*
X176136000Y-73005500D03*
G04 #@! TD*
D15*
G04 #@! TO.C,R4*
X163175000Y-73400000D03*
X164825000Y-73400000D03*
G04 #@! TD*
D11*
G04 #@! TO.C,C202*
X110800000Y-117575000D03*
X109250000Y-117575000D03*
G04 #@! TD*
D24*
G04 #@! TO.C,SW2*
X100160000Y-97550000D03*
X100160000Y-95010000D03*
X100160000Y-92470000D03*
X108770000Y-92470000D03*
X108770000Y-95010000D03*
X108770000Y-97550000D03*
G04 #@! TD*
D25*
G04 #@! TO.C,U1*
X125950000Y-104345000D03*
X125950000Y-103075000D03*
X125950000Y-101805000D03*
X125950000Y-100535000D03*
X125950000Y-99265000D03*
X125950000Y-97995000D03*
X125950000Y-96725000D03*
X125950000Y-95455000D03*
X131100000Y-95455000D03*
X131100000Y-96725000D03*
X131100000Y-97995000D03*
X131100000Y-99265000D03*
X131100000Y-100535000D03*
X131100000Y-101805000D03*
X131100000Y-103075000D03*
X131100000Y-104345000D03*
G04 #@! TD*
D13*
G04 #@! TO.C,C239*
X89125000Y-98275000D03*
X89125000Y-96725000D03*
G04 #@! TD*
D11*
G04 #@! TO.C,C104*
X110800000Y-120875000D03*
X109250000Y-120875000D03*
G04 #@! TD*
G04 #@! TO.C,C229*
X86600000Y-81310000D03*
X85050000Y-81310000D03*
G04 #@! TD*
D15*
G04 #@! TO.C,R230*
X86275000Y-94750000D03*
X87925000Y-94750000D03*
G04 #@! TD*
D10*
G04 #@! TO.C,C237*
X81900000Y-100625000D03*
X83450000Y-100625000D03*
G04 #@! TD*
D15*
G04 #@! TO.C,R243*
X86275000Y-110125000D03*
X87925000Y-110125000D03*
G04 #@! TD*
D22*
G04 #@! TO.C,R1*
X123300000Y-104825000D03*
X123300000Y-103175000D03*
G04 #@! TD*
D15*
G04 #@! TO.C,R205*
X109175000Y-87100000D03*
X110825000Y-87100000D03*
G04 #@! TD*
G04 #@! TO.C,R234*
X78700000Y-88450000D03*
X80350000Y-88450000D03*
G04 #@! TD*
G04 #@! TO.C,R6*
X109200000Y-124025000D03*
X110850000Y-124025000D03*
G04 #@! TD*
D11*
G04 #@! TO.C,C28*
X177686000Y-75164500D03*
X176136000Y-75164500D03*
G04 #@! TD*
D12*
G04 #@! TO.C,C32*
X119125000Y-92875000D03*
X119125000Y-94425000D03*
G04 #@! TD*
D26*
G04 #@! TO.C,U204*
X85925000Y-100750000D03*
X86575000Y-100750000D03*
X87225000Y-100750000D03*
X87875000Y-100750000D03*
X88525000Y-100750000D03*
X89175000Y-100750000D03*
X89825000Y-100750000D03*
X90475000Y-100750000D03*
X91125000Y-100750000D03*
X91775000Y-100750000D03*
X91775000Y-107760000D03*
X91125000Y-107760000D03*
X90475000Y-107760000D03*
X89825000Y-107760000D03*
X89175000Y-107760000D03*
X88525000Y-107760000D03*
X87875000Y-107760000D03*
X87225000Y-107760000D03*
X86575000Y-107760000D03*
X85925000Y-107760000D03*
G04 #@! TD*
D13*
G04 #@! TO.C,C212*
X117600000Y-85500000D03*
X117600000Y-83950000D03*
G04 #@! TD*
D15*
G04 #@! TO.C,R236*
X78700000Y-103900000D03*
X80350000Y-103900000D03*
G04 #@! TD*
D13*
G04 #@! TO.C,C120*
X114125000Y-114750000D03*
X114125000Y-113200000D03*
G04 #@! TD*
D11*
G04 #@! TO.C,C203*
X110775000Y-83875000D03*
X109225000Y-83875000D03*
G04 #@! TD*
D13*
G04 #@! TO.C,C13*
X188150000Y-69575000D03*
X188150000Y-68025000D03*
G04 #@! TD*
D11*
G04 #@! TO.C,C103*
X110800000Y-119250000D03*
X109250000Y-119250000D03*
G04 #@! TD*
D13*
G04 #@! TO.C,C215*
X109150000Y-78975000D03*
X109150000Y-77425000D03*
G04 #@! TD*
D11*
G04 #@! TO.C,C123*
X103525000Y-120000000D03*
X101975000Y-120000000D03*
G04 #@! TD*
D26*
G04 #@! TO.C,U203*
X85962000Y-85408000D03*
X86612000Y-85408000D03*
X87262000Y-85408000D03*
X87912000Y-85408000D03*
X88562000Y-85408000D03*
X89212000Y-85408000D03*
X89862000Y-85408000D03*
X90512000Y-85408000D03*
X91162000Y-85408000D03*
X91812000Y-85408000D03*
X91812000Y-92418000D03*
X91162000Y-92418000D03*
X90512000Y-92418000D03*
X89862000Y-92418000D03*
X89212000Y-92418000D03*
X88562000Y-92418000D03*
X87912000Y-92418000D03*
X87262000Y-92418000D03*
X86612000Y-92418000D03*
X85962000Y-92418000D03*
G04 #@! TD*
D10*
G04 #@! TO.C,C222*
X102025000Y-81700000D03*
X103575000Y-81700000D03*
G04 #@! TD*
D22*
G04 #@! TO.C,R123*
X112500000Y-114400000D03*
X112500000Y-112750000D03*
G04 #@! TD*
D12*
G04 #@! TO.C,C124*
X115750000Y-121050000D03*
X115750000Y-122600000D03*
G04 #@! TD*
D13*
G04 #@! TO.C,C121*
X117550000Y-116325000D03*
X117550000Y-114775000D03*
G04 #@! TD*
D12*
G04 #@! TO.C,C25*
X117350000Y-104050000D03*
X117350000Y-105600000D03*
G04 #@! TD*
D13*
G04 #@! TO.C,C210*
X115750000Y-116325000D03*
X115750000Y-114775000D03*
G04 #@! TD*
D11*
G04 #@! TO.C,C321*
X110775000Y-82200000D03*
X109225000Y-82200000D03*
G04 #@! TD*
D15*
G04 #@! TO.C,R105*
X106150000Y-115950000D03*
X107800000Y-115950000D03*
G04 #@! TD*
D11*
G04 #@! TO.C,C9*
X174875000Y-70475000D03*
X173325000Y-70475000D03*
G04 #@! TD*
D12*
G04 #@! TO.C,C26*
X119125000Y-104025000D03*
X119125000Y-105575000D03*
G04 #@! TD*
D13*
G04 #@! TO.C,C24*
X115551000Y-94427000D03*
X115551000Y-92877000D03*
G04 #@! TD*
M02*
